<svg xmlns="http://www.w3.org/2000/svg" version="1.1" width="3300" height="2000"><g id="Notes"><style>
    text {
      font-family: monospace;
      text-anchor: middle;
    }
    text.emphasis {
      font-weight:bold;
    }
    text.lanchor {
      text-anchor: start;
    }
  </style><rect height="2200" id="artboard" fill="white" width="3300" x="0" y="0"/><line id="" style="fill:none;stroke:black;stroke-width:0.5;" x1="263" x2="3036" y1="292" y2="292"/><text class="lanchor emphasis" transform="matrix(1 0 0 1 263 322)">Weight/Scale Variations</text><text transform="matrix(1 0 0 1 559.711 322)">Ultralight</text><text transform="matrix(1 0 0 1 856.422 322)">Thin</text><text transform="matrix(1 0 0 1 1153.13 322)">Light</text><text transform="matrix(1 0 0 1 1449.84 322)">Regular</text><text transform="matrix(1 0 0 1 1746.56 322)">Medium</text><text transform="matrix(1 0 0 1 2043.27 322)">Semibold</text><text transform="matrix(1 0 0 1 2339.98 322)">Bold</text><text transform="matrix(1 0 0 1 2636.69 322)">Heavy</text><text transform="matrix(1 0 0 1 2933.4 322)">Black</text><text id="template-version" style="text-anchor: end;" transform="matrix(1 0 0 1 3036 1933)">Template v.1.0</text><text class="lanchor" transform="matrix(1 0 0 1 263 726)">Small</text><text class="lanchor" transform="matrix(1 0 0 1 263 1156)">Medium</text><text class="lanchor" transform="matrix(1 0 0 1 263 1586)">Large</text></g><g id="Guides"><g id="H-reference" style="fill:#27AAE1;stroke:none;" transform="matrix(1 0 0 1 339 696)"><path d="M 54.9316 0 L 57.666 0 L 30.5664 -70.459 L 28.0762 -70.459 L 0.976562 0 L 3.66211 0 L 12.9395 -24.4629 L 45.7031 -24.4629 Z M 29.1992 -67.0898 L 29.4434 -67.0898 L 44.8242 -26.709 L 13.8184 -26.709 Z"/></g><line id="Baseline-S" style="fill:none;stroke:#27AAE1;opacity:1;stroke-width:0.577;" x1="263" x2="3036" y1="696" y2="696"/><line id="Capline-S" style="fill:none;stroke:#27AAE1;opacity:1;stroke-width:0.577;" x1="263" x2="3036" y1="625.541" y2="625.541"/><g id="H-reference" style="fill:#27AAE1;stroke:none;" transform="matrix(1 0 0 1 339 1126)"><path d="M 54.9316 0 L 57.666 0 L 30.5664 -70.459 L 28.0762 -70.459 L 0.976562 0 L 3.66211 0 L 12.9395 -24.4629 L 45.7031 -24.4629 Z M 29.1992 -67.0898 L 29.4434 -67.0898 L 44.8242 -26.709 L 13.8184 -26.709 Z"/></g><line id="Baseline-M" style="fill:none;stroke:#27AAE1;opacity:1;stroke-width:0.577;" x1="263" x2="3036" y1="1126" y2="1126"/><line id="Capline-M" style="fill:none;stroke:#27AAE1;opacity:1;stroke-width:0.577;" x1="263" x2="3036" y1="1055.54" y2="1055.54"/><g id="H-reference" style="fill:#27AAE1;stroke:none;" transform="matrix(1 0 0 1 339 1556)"><path d="M 54.9316 0 L 57.666 0 L 30.5664 -70.459 L 28.0762 -70.459 L 0.976562 0 L 3.66211 0 L 12.9395 -24.4629 L 45.7031 -24.4629 Z M 29.1992 -67.0898 L 29.4434 -67.0898 L 44.8242 -26.709 L 13.8184 -26.709 Z"/></g><line id="Baseline-L" style="fill:none;stroke:#27AAE1;opacity:1;stroke-width:0.577;" x1="263" x2="3036" y1="1556" y2="1556"/><line id="Capline-L" style="fill:none;stroke:#27AAE1;opacity:1;stroke-width:0.577;" x1="263" x2="3036" y1="1485.54" y2="1485.54"/><rect height="119.336" id="left-margin" style="fill:darkred;stroke:none;opacity:0.4;" width="12.4512" x="1394.06" y="1030.79"/><rect height="119.336" id="right-margin" style="fill:darkgreen;stroke:none;opacity:0.4;" width="12.4512" x="1502.5112" y="1030.79"/><rect x="1406.5112" y="1045" width="96" height="96" fill="none" stroke="blue" stroke-dasharray="5"/><rect x="1394.06" y="1030.79" width="120.9024" height="119.336" fill="none" stroke="blue"/></g><g id="Symbols"><g id="Bold-L" transform="matrix(1 0 0 1 2266 1556)"><path d="M120.938 -48.452  110.295 -59.417  128.032 -76.832  138.675 -66.19  120.938 -48.452 Z M10.159 21.208 V6.05 H144.641 V21.208 H10.159 Z M69.821 -68.447 V-93.441 H84.979 V-68.447 H69.821 Z M33.863 -48.614  16.286 -66.512  26.929 -77.155  44.989 -59.256  33.863 -48.614 Z M46.44 -20.717 H108.36 Q105.135 -30.876 96.75 -37.084 Q88.365 -43.292 77.4 -43.292 Q66.435 -43.292 58.05 -37.084 Q49.665 -30.876 46.44 -20.717 Z M29.509 -6.689 Q29.509 -27.49 43.296 -42.406 Q57.083 -57.321 77.4 -57.321 Q97.718 -57.321 111.504 -42.406 Q125.291 -27.49 125.291 -6.689 H29.509 Z"/></g><g id="Semibold-L" transform="matrix(1 0 0 1 1970.27 1556)"><path d="M119.325 -48.523  110.365 -57.805  126.42 -73.538  135.38 -64.578  119.325 -48.523 Z M11.351 18.403 V5.629 H143.449 V18.403 H11.351 Z M71.013 -68.027 V-90.567 H83.787 V-68.027 H71.013 Z M35.475 -48.684  19.581 -64.9  28.541 -73.86  44.848 -57.644  35.475 -48.684 Z M45.038 -20.016 H109.762 Q106.607 -30.736 97.802 -37.365 Q88.996 -43.994 77.4 -43.994 Q65.804 -43.994 56.998 -37.365 Q48.193 -30.736 45.038 -20.016 Z M30.701 -7.881 Q30.701 -27.841 44.207 -41.985 Q57.713 -56.129 77.4 -56.129 Q97.087 -56.129 110.593 -41.985 Q124.099 -27.841 124.099 -7.881 H30.701 Z"/></g><g id="Medium-L" transform="matrix(1 0 0 1 1674.31 1556)"><path d="M118.116 -48.575  110.418 -56.596  125.211 -71.066  132.909 -63.368  118.116 -48.575 Z M12.245 16.3 V5.314 H142.555 V16.3 H12.245 Z M71.907 -67.711 V-88.411 H82.893 V-67.711 H71.907 Z M36.684 -48.736  22.053 -63.691  29.751 -71.389  44.743 -56.434  36.684 -48.736 Z M43.986 -19.491 H110.814 Q107.711 -30.631 98.59 -37.575 Q89.469 -44.519 77.4 -44.519 Q65.331 -44.519 56.21 -37.575 Q47.089 -30.631 43.986 -19.491 Z M31.595 -8.775 Q31.595 -28.103 44.891 -41.67 Q58.187 -55.235 77.4 -55.235 Q96.613 -55.235 109.909 -41.67 Q123.205 -28.103 123.205 -8.775 H31.595 Z"/></g><g id="Regular-L" transform="matrix(1 0 0 1 1378.56 1556)"><path d="M117.229 -48.614  110.456 -55.709  124.324 -69.254  131.096 -62.481  117.229 -48.614 Z M12.9 14.758 V5.083 H141.9 V14.758 H12.9 Z M72.562 -67.48 V-86.83 H82.237 V-67.48 H72.562 Z M37.571 -48.775  23.865 -62.804  30.637 -69.576  44.666 -55.547  37.571 -48.775 Z M43.215 -19.105 H111.585 Q108.521 -30.554 99.169 -37.729 Q89.816 -44.905 77.4 -44.905 Q64.984 -44.905 55.631 -37.729 Q46.279 -30.554 43.215 -19.105 Z M32.25 -9.43 Q32.25 -28.296 45.392 -41.438 Q58.534 -54.58 77.4 -54.58 Q96.266 -54.58 109.408 -41.438 Q122.55 -28.296 122.55 -9.43 H32.25 Z"/></g><g id="Light-L" transform="matrix(1 0 0 1 1082.77 1556)"><path d="M116.298 -49.296  111.138 -54.654  123.642 -66.959  128.801 -61.799  116.298 -49.296 Z M14.513 13.579 V6.261 H140.287 V13.579 H14.513 Z M73.741 -66.736 V-84.101 H81.059 V-66.736 H73.741 Z M38.502 -49.395  26.098 -61.997  31.258 -67.157  43.86 -54.555  38.502 -49.395 Z M44.455 -19.973 H110.345 Q107.095 -30.74 98.114 -37.388 Q89.134 -44.037 77.4 -44.037 Q65.666 -44.037 56.686 -37.388 Q47.705 -30.74 44.455 -19.973 Z M35.847 -12.655 Q36.964 -29.102 48.896 -40.229 Q60.829 -51.355 77.4 -51.355 Q93.971 -51.355 105.904 -40.229 Q117.836 -29.102 118.953 -12.655 H35.847 Z"/></g><g id="Thin-L" transform="matrix(1 0 0 1 787.282 1556)"><path d="M115.368 -49.978  111.821 -53.6  122.959 -64.664  126.507 -61.117  115.368 -49.978 Z M16.125 12.401 V7.439 H138.675 V12.401 H16.125 Z M74.919 -65.992 V-81.372 H79.881 V-65.992 H74.919 Z M39.432 -50.015  28.33 -61.191  31.878 -64.739  43.054 -53.563  39.432 -50.015 Z M45.696 -20.842 H109.104 Q105.668 -30.926 97.06 -37.047 Q88.452 -43.168 77.4 -43.168 Q66.348 -43.168 57.74 -37.047 Q49.132 -30.926 45.696 -20.842 Z M39.444 -15.88 Q41.677 -29.909 52.4 -39.019 Q63.123 -48.13 77.4 -48.13 Q91.677 -48.13 102.4 -39.019 Q113.123 -29.909 115.356 -15.88 H39.444 Z"/></g><g id="Ultralight-L" transform="matrix(1 0 0 1 491.205 1556)"><path d="M114.81 -50.387  112.23 -52.967  122.55 -63.287  125.13 -60.707  114.81 -50.387 Z M17.093 11.694 V8.146 H137.708 V11.694 H17.093 Z M75.626 -65.545 V-79.735 H79.174 V-65.545 H75.626 Z M39.99 -50.387  29.67 -60.707  32.25 -63.287  42.57 -52.967  39.99 -50.387 Z M46.44 -21.362 H108.36 Q104.812 -31.037 96.428 -36.842 Q88.043 -42.647 77.4 -42.647 Q66.758 -42.647 58.373 -36.842 Q49.988 -31.037 46.44 -21.362 Z M41.602 -17.815 Q44.505 -30.392 54.503 -38.294 Q64.5 -46.195 77.4 -46.195 Q90.3 -46.195 100.297 -38.294 Q110.295 -30.392 113.198 -17.815 H41.602 Z"/></g><g id="Bold-M" transform="matrix(1 0 0 1 2281.8 1126)"><path d="M95.625 -44.48  84.5 -55.855  99.375 -70.355  110.375 -59.355  95.625 -44.48 Z M7.125 11.52 V-4.23 H112.875 V11.52 H7.125 Z M52.125 -61.23 V-81.98 H67.875 V-61.23 H52.125 Z M24.375 -44.73  9.875 -59.605  20.875 -70.605  35.75 -55.855  24.375 -44.73 Z M40.5 -26.855 H79.5 Q76.375 -32.355 71.375 -35.48 Q66.375 -38.605 60 -38.605 Q53.625 -38.605 48.625 -35.48 Q43.625 -32.355 40.5 -26.855 Z M22.125 -12.355 Q22.125 -28.98 33 -41.042 Q43.875 -53.105 60 -53.105 Q76.125 -53.105 87 -41.042 Q97.875 -28.98 97.875 -12.355 H22.125 Z"/></g><g id="Semibold-M" transform="matrix(1 0 0 1 1985.97 1126)"><path d="M93.94 -44.589  84.609 -54.17  97.69 -66.931  106.951 -57.67  93.94 -44.589 Z M8.375 8.585 V-4.665 H111.625 V8.585 H8.375 Z M53.375 -60.795 V-79.045 H66.625 V-60.795 H53.375 Z M26.06 -44.839  13.299 -57.92  22.56 -67.181  35.641 -54.17  26.06 -44.839 Z M39.033 -26.148 H80.967 Q77.951 -32.192 72.462 -35.752 Q66.973 -39.311 60 -39.311 Q53.027 -39.311 47.538 -35.752 Q42.049 -32.192 39.033 -26.148 Z M23.375 -13.605 Q23.375 -29.36 33.951 -40.608 Q44.527 -51.855 60 -51.855 Q75.473 -51.855 86.049 -40.608 Q96.625 -29.36 96.625 -13.605 H23.375 Z"/></g><g id="Medium-M" transform="matrix(1 0 0 1 1689.91 1126)"><path d="M92.677 -44.67  84.69 -52.907  96.427 -64.363  104.383 -56.407  92.677 -44.67 Z M9.312 6.384 V-4.991 H110.688 V6.384 H9.312 Z M54.312 -60.469 V-76.844 H65.688 V-60.469 H54.312 Z M27.323 -44.92  15.867 -56.657  23.823 -64.613  35.56 -52.907  27.323 -44.92 Z M37.932 -25.619 H82.068 Q79.133 -32.07 73.277 -35.955 Q67.421 -39.841 60 -39.841 Q52.579 -39.841 46.723 -35.955 Q40.867 -32.07 37.932 -25.619 Z M24.312 -14.542 Q24.312 -29.646 34.664 -40.282 Q45.016 -50.917 60 -50.917 Q74.984 -50.917 85.336 -40.282 Q95.688 -29.646 95.688 -14.542 H24.312 Z"/></g><g id="Regular-M" transform="matrix(1 0 0 1 1394.06 1126)"><path d="M91.75 -44.73  84.75 -51.98  95.5 -62.48  102.5 -55.48  91.75 -44.73 Z M10 4.77 V-5.23 H110 V4.77 H10 Z M55 -60.23 V-75.23 H65 V-60.23 H55 Z M28.25 -44.98  17.75 -55.73  24.75 -62.73  35.5 -51.98  28.25 -44.98 Z M37.125 -25.23 H82.875 Q80 -31.98 73.875 -36.105 Q67.75 -40.23 60 -40.23 Q52.25 -40.23 46.125 -36.105 Q40 -31.98 37.125 -25.23 Z M25 -15.23 Q25 -29.855 35.188 -40.042 Q45.375 -50.23 60 -50.23 Q74.625 -50.23 84.812 -40.042 Q95 -29.855 95 -15.23 H25 Z"/></g><g id="Light-M" transform="matrix(1 0 0 1 1098.18 1126)"><path d="M90.788 -45.499  85.519 -50.922  95.212 -60.461  100.481 -55.191  90.788 -45.499 Z M11.25 3.52 V-3.98 H108.75 V3.52 H11.25 Z M56.25 -59.653 V-73.114 H63.75 V-59.653 H56.25 Z M29.212 -45.653  19.673 -55.345  24.942 -60.614  34.635 -50.922  29.212 -45.653 Z M37.125 -25.23 H82.875 Q80 -31.98 73.851 -36.105 Q67.702 -40.23 60 -40.23 Q52.298 -40.23 46.149 -36.105 Q40 -31.98 37.125 -25.23 Z M27.789 -17.73 Q28.654 -30.48 37.904 -39.105 Q47.154 -47.73 60 -47.73 Q72.846 -47.73 82.096 -39.105 Q91.346 -30.48 92.211 -17.73 H27.789 Z"/></g><g id="Thin-M" transform="matrix(1 0 0 1 802.565 1126)"><path d="M89.827 -46.268  86.288 -49.865  94.923 -58.442  98.462 -54.903  89.827 -46.268 Z M12.5 2.27 V-2.73 H107.5 V2.27 H12.5 Z M57.5 -59.076 V-70.999 H62.5 V-59.076 H57.5 Z M30.173 -46.326  21.596 -54.961  25.135 -58.499  33.769 -49.865  30.173 -46.326 Z M37.125 -25.23 H82.875 Q80 -31.98 73.827 -36.105 Q67.654 -40.23 60 -40.23 Q52.346 -40.23 46.173 -36.105 Q40 -31.98 37.125 -25.23 Z M30.577 -20.23 Q32.308 -31.105 40.62 -38.167 Q48.933 -45.23 60 -45.23 Q71.067 -45.23 79.38 -38.167 Q87.692 -31.105 89.423 -20.23 H30.577 Z"/></g><g id="Ultralight-M" transform="matrix(1 0 0 1 506.415 1126)"><path d="M89.25 -46.73  86.75 -49.23  94.75 -57.23  97.25 -54.73  89.25 -46.73 Z M13.25 1.52 V-1.98 H106.75 V1.52 H13.25 Z M58.25 -58.73 V-69.73 H61.75 V-58.73 H58.25 Z M30.75 -46.73  22.75 -54.73  25.25 -57.23  33.25 -49.23  30.75 -46.73 Z M37.125 -25.23 H82.875 Q80 -31.98 73.812 -36.105 Q67.625 -40.23 60 -40.23 Q52.375 -40.23 46.188 -36.105 Q40 -31.98 37.125 -25.23 Z M32.25 -21.73 Q34.5 -31.48 42.25 -37.605 Q50 -43.73 60 -43.73 Q70 -43.73 77.75 -37.605 Q85.5 -31.48 87.75 -21.73 H32.25 Z"/></g><g id="Bold-S" transform="matrix(1 0 0 1 2294.23 696)"><path d="M74.363 -39.372  66.079 -47.657  77.716 -59.196  85.804 -51.01  74.363 -39.372 Z M7.2 3.234 V-8.404 H87.48 V3.234 H7.2 Z M41.521 -52.588 V-68.96 H53.159 V-52.588 H41.521 Z M20.021 -39.372  8.482 -51.01  16.668 -59.196  28.305 -47.657  20.021 -39.372 Z M29.883 -24.677 H64.797 Q62.43 -30.003 57.893 -33.159 Q53.356 -36.315 47.34 -36.315 Q41.324 -36.315 36.787 -33.159 Q32.25 -30.003 29.883 -24.677 Z M16.668 -14.026 Q16.668 -27.439 25.471 -37.202 Q34.274 -46.966 47.316 -46.966 Q60.358 -46.966 69.185 -37.219 Q78.012 -27.472 78.012 -14.026 H16.668 Z"/></g><g id="Semibold-S" transform="matrix(1 0 0 1 1998.1 696)"><path d="M73.034 -39.458  66.165 -46.328  76.387 -56.495  83.103 -49.681  73.034 -39.458 Z M8.186 0.918 V-8.747 H86.494 V0.918 H8.186 Z M42.507 -52.245 V-66.644 H52.173 V-52.245 H42.507 Z M21.35 -39.458  11.183 -49.681  17.997 -56.495  28.22 -46.328  21.35 -39.458 Z M28.726 -24.12 H65.954 Q63.673 -29.874 58.75 -33.373 Q53.828 -36.872 47.34 -36.872 Q40.852 -36.872 35.93 -33.373 Q31.007 -29.874 28.726 -24.12 Z M17.654 -15.012 Q17.654 -27.739 26.221 -36.859 Q34.788 -45.98 47.316 -45.98 Q59.844 -45.98 68.435 -36.876 Q77.026 -27.773 77.026 -15.012 H17.654 Z"/></g><g id="Medium-S" transform="matrix(1 0 0 1 1701.85 696)"><path d="M72.037 -39.522  66.229 -45.33  75.39 -54.468  81.076 -48.684  72.037 -39.522 Z M8.926 -0.818 V-9.004 H85.754 V-0.818 H8.926 Z M43.247 -51.988 V-64.908 H51.433 V-51.988 H43.247 Z M22.347 -39.522  13.209 -48.684  18.994 -54.468  28.155 -45.33  22.347 -39.522 Z M27.857 -23.702 H66.823 Q64.606 -29.778 59.394 -33.534 Q54.182 -37.29 47.34 -37.29 Q40.498 -37.29 35.286 -33.534 Q30.074 -29.778 27.857 -23.702 Z M18.394 -15.752 Q18.394 -27.964 26.784 -36.602 Q35.174 -45.24 47.316 -45.24 Q59.458 -45.24 67.872 -36.619 Q76.286 -27.998 76.286 -15.752 H18.394 Z"/></g><g id="Regular-S" transform="matrix(1 0 0 1 1405.73 696)"><path d="M71.306 -39.569  66.276 -44.599  74.659 -52.982  79.59 -47.953  71.306 -39.569 Z M9.468 -2.092 V-9.193 H85.212 V-2.092 H9.468 Z M43.79 -51.799 V-63.634 H50.891 V-51.799 H43.79 Z M23.078 -39.569  14.695 -47.953  19.725 -52.982  28.108 -44.599  23.078 -39.569 Z M27.221 -23.395 H67.46 Q65.29 -29.707 59.865 -33.652 Q54.441 -37.597 47.34 -37.597 Q40.239 -37.597 34.815 -33.652 Q29.39 -29.707 27.221 -23.395 Z M18.936 -16.294 Q18.936 -28.129 27.197 -36.413 Q35.457 -44.698 47.316 -44.698 Q59.175 -44.698 67.46 -36.43 Q75.744 -28.163 75.744 -16.294 H18.936 Z"/></g><g id="Light-S" transform="matrix(1 0 0 1 1109.75 696)"><path d="M70.547 -40.176  66.883 -43.765  74.431 -51.389  77.997 -47.725  70.547 -40.176 Z M10.454 -3.078 V-8.207 H84.226 V-3.078 H10.454 Z M44.776 -51.344 V-61.965 H49.904 V-51.344 H44.776 Z M23.837 -40.101  16.213 -47.649  19.877 -51.313  27.425 -43.765  23.837 -40.101 Z M27.221 -23.395 H67.46 Q65.29 -29.707 59.846 -33.652 Q54.403 -37.597 47.34 -37.597 Q40.277 -37.597 34.834 -33.652 Q29.39 -29.707 27.221 -23.395 Z M21.136 -18.267 Q21.819 -28.622 29.34 -35.674 Q36.861 -42.725 47.316 -42.725 Q57.771 -42.725 65.316 -35.691 Q72.861 -28.656 73.544 -18.267 H21.136 Z"/></g><g id="Thin-S" transform="matrix(1 0 0 1 814.015 696)"><path d="M69.789 -40.783  67.49 -42.93  74.204 -49.796  76.404 -47.497  69.789 -40.783 Z M11.441 -4.064 V-7.22 H83.24 V-4.064 H11.441 Z M45.762 -50.889 V-60.296 H48.918 V-50.889 H45.762 Z M24.596 -40.632  17.73 -47.346  20.028 -49.644  26.743 -42.93  24.596 -40.632 Z M27.221 -23.395 H67.46 Q65.29 -29.707 59.827 -33.652 Q54.365 -37.597 47.34 -37.597 Q40.315 -37.597 34.853 -33.652 Q29.39 -29.707 27.221 -23.395 Z M23.336 -20.239 Q24.702 -29.115 31.483 -34.934 Q38.264 -40.753 47.316 -40.753 Q56.368 -40.753 63.173 -34.951 Q69.978 -29.149 71.344 -20.239 H23.336 Z"/></g><g id="Ultralight-S" transform="matrix(1 0 0 1 517.792 696)"><path d="M69.333 -41.147  67.854 -42.43  74.067 -48.84  75.448 -47.361  69.333 -41.147 Z M12.032 -4.656 V-6.629 H82.648 V-4.656 H12.032 Z M46.354 -50.615 V-59.294 H48.326 V-50.615 H46.354 Z M25.051 -40.95  18.64 -47.164  20.12 -48.643  26.333 -42.43  25.051 -40.95 Z M27.221 -23.395 H67.46 Q65.29 -29.707 59.816 -33.652 Q54.342 -37.597 47.34 -37.597 Q40.338 -37.597 34.864 -33.652 Q29.39 -29.707 27.221 -23.395 Z M24.656 -21.422 Q26.431 -29.411 32.769 -34.49 Q39.106 -39.569 47.316 -39.569 Q55.526 -39.569 61.887 -34.507 Q68.249 -29.445 70.024 -21.422 H24.656 Z"/></g></g></svg>