<svg xmlns="http://www.w3.org/2000/svg" version="1.1" width="3300" height="2000"><g id="Notes"><style>
    text {
      font-family: monospace;
      text-anchor: middle;
    }
    text.emphasis {
      font-weight:bold;
    }
    text.lanchor {
      text-anchor: start;
    }
  </style><rect height="2200" id="artboard" fill="white" width="3300" x="0" y="0"/><line id="" style="fill:none;stroke:black;stroke-width:0.5;" x1="263" x2="3036" y1="292" y2="292"/><text class="lanchor emphasis" transform="matrix(1 0 0 1 263 322)">Weight/Scale Variations</text><text transform="matrix(1 0 0 1 559.711 322)">Ultralight</text><text transform="matrix(1 0 0 1 856.422 322)">Thin</text><text transform="matrix(1 0 0 1 1153.13 322)">Light</text><text transform="matrix(1 0 0 1 1449.84 322)">Regular</text><text transform="matrix(1 0 0 1 1746.56 322)">Medium</text><text transform="matrix(1 0 0 1 2043.27 322)">Semibold</text><text transform="matrix(1 0 0 1 2339.98 322)">Bold</text><text transform="matrix(1 0 0 1 2636.69 322)">Heavy</text><text transform="matrix(1 0 0 1 2933.4 322)">Black</text><text id="template-version" style="text-anchor: end;" transform="matrix(1 0 0 1 3036 1933)">Template v.1.0</text><text class="lanchor" transform="matrix(1 0 0 1 263 726)">Small</text><text class="lanchor" transform="matrix(1 0 0 1 263 1156)">Medium</text><text class="lanchor" transform="matrix(1 0 0 1 263 1586)">Large</text></g><g id="Guides"><g id="H-reference" style="fill:#27AAE1;stroke:none;" transform="matrix(1 0 0 1 339 696)"><path d="M 54.9316 0 L 57.666 0 L 30.5664 -70.459 L 28.0762 -70.459 L 0.976562 0 L 3.66211 0 L 12.9395 -24.4629 L 45.7031 -24.4629 Z M 29.1992 -67.0898 L 29.4434 -67.0898 L 44.8242 -26.709 L 13.8184 -26.709 Z"/></g><line id="Baseline-S" style="fill:none;stroke:#27AAE1;opacity:1;stroke-width:0.577;" x1="263" x2="3036" y1="696" y2="696"/><line id="Capline-S" style="fill:none;stroke:#27AAE1;opacity:1;stroke-width:0.577;" x1="263" x2="3036" y1="625.541" y2="625.541"/><g id="H-reference" style="fill:#27AAE1;stroke:none;" transform="matrix(1 0 0 1 339 1126)"><path d="M 54.9316 0 L 57.666 0 L 30.5664 -70.459 L 28.0762 -70.459 L 0.976562 0 L 3.66211 0 L 12.9395 -24.4629 L 45.7031 -24.4629 Z M 29.1992 -67.0898 L 29.4434 -67.0898 L 44.8242 -26.709 L 13.8184 -26.709 Z"/></g><line id="Baseline-M" style="fill:none;stroke:#27AAE1;opacity:1;stroke-width:0.577;" x1="263" x2="3036" y1="1126" y2="1126"/><line id="Capline-M" style="fill:none;stroke:#27AAE1;opacity:1;stroke-width:0.577;" x1="263" x2="3036" y1="1055.54" y2="1055.54"/><g id="H-reference" style="fill:#27AAE1;stroke:none;" transform="matrix(1 0 0 1 339 1556)"><path d="M 54.9316 0 L 57.666 0 L 30.5664 -70.459 L 28.0762 -70.459 L 0.976562 0 L 3.66211 0 L 12.9395 -24.4629 L 45.7031 -24.4629 Z M 29.1992 -67.0898 L 29.4434 -67.0898 L 44.8242 -26.709 L 13.8184 -26.709 Z"/></g><line id="Baseline-L" style="fill:none;stroke:#27AAE1;opacity:1;stroke-width:0.577;" x1="263" x2="3036" y1="1556" y2="1556"/><line id="Capline-L" style="fill:none;stroke:#27AAE1;opacity:1;stroke-width:0.577;" x1="263" x2="3036" y1="1485.54" y2="1485.54"/><rect height="119.336" id="left-margin" style="fill:darkred;stroke:none;opacity:0.4;" width="12.4512" x="1394.06" y="1030.79"/><rect height="119.336" id="right-margin" style="fill:darkgreen;stroke:none;opacity:0.4;" width="12.4512" x="1502.5112" y="1030.79"/><rect x="1406.5112" y="1045" width="96" height="96" fill="none" stroke="blue" stroke-dasharray="5"/><rect x="1394.06" y="1030.79" width="120.9024" height="119.336" fill="none" stroke="blue"/></g><g id="Symbols"><g id="Bold-L" transform="matrix(1 0 0 1 2266 1556)"><path d="M68.047 -23.459 H79.657 V-65.384 H68.047 V-23.459 Z M89.332 -34.424 H100.943 V-58.934 H89.332 V-34.424 Z M46.763 -36.359 H58.373 V-58.934 H46.763 V-36.359 Z M35.153 32.818 V3.148 Q25.961 -5.721 20.882 -17.412 Q15.803 -29.102 15.803 -41.68 Q15.803 -67.413 33.746 -85.426 Q51.69 -103.439 77.324 -103.439 Q98.685 -103.439 115.213 -90.7 Q131.741 -77.961 136.901 -57.805 L145.931 -21.685 Q146.899 -17.976 144.656 -15.154 Q142.413 -12.332 138.675 -12.332 H126.259 V4.76 Q126.259 11.178 121.841 15.548 Q117.424 19.918 110.94 19.918 H100.459 V32.818 H85.14 V4.76 H110.94 Q110.94 4.76 110.94 4.76 Q110.94 4.76 110.94 4.76 V-27.49 H128.839 L122.228 -54.096 Q118.358 -68.931 105.78 -78.526 Q93.203 -88.12 77.474 -88.12 Q58.089 -88.12 44.524 -74.682 Q30.96 -61.243 30.96 -42.04 Q30.96 -32.196 35.043 -23.078 Q39.127 -13.96 46.601 -7.172 L50.31 -3.647 V32.818 H35.153 Z"/></g><g id="Semibold-L" transform="matrix(1 0 0 1 1970.27 1556)"><path d="M70.01 -23.669 H80.779 V-65.594 H70.01 V-23.669 Z M90.454 -34.073 H101.223 V-59.144 H90.454 V-34.073 Z M49.567 -36.569 H60.335 V-59.144 H49.567 V-36.569 Z M36.695 31.275 V2.446 Q27.504 -6.212 22.424 -17.692 Q17.345 -29.173 17.345 -41.68 Q17.345 -66.741 34.848 -84.284 Q52.352 -101.826 77.357 -101.826 Q98.194 -101.826 114.302 -89.473 Q130.409 -77.12 135.359 -57.454 L144.319 -21.755 Q145.146 -18.677 143.247 -16.276 Q141.349 -13.875 138.184 -13.875 H124.646 V5.601 Q124.646 10.964 120.914 14.67 Q117.182 18.375 111.781 18.375 H98.846 V31.275 H85.981 V5.601 H111.781 Q111.781 5.601 111.781 5.601 Q111.781 5.601 111.781 5.601 V-26.649 H129.89 L122.999 -54.307 Q119.129 -69.492 106.341 -79.227 Q93.553 -88.961 77.442 -88.961 Q57.721 -88.961 43.92 -75.301 Q30.119 -61.641 30.119 -42.056 Q30.119 -31.976 34.272 -22.757 Q38.426 -13.539 46.04 -6.542 L49.469 -3.287 V31.275 H36.695 Z"/></g><g id="Medium-L" transform="matrix(1 0 0 1 1674.31 1556)"><path d="M71.483 -23.827 H81.621 V-65.752 H71.483 V-23.827 Z M91.296 -33.81 H101.433 V-59.302 H91.296 V-33.81 Z M51.67 -36.727 H61.808 V-59.302 H51.67 V-36.727 Z M37.852 30.118 V1.921 Q28.66 -6.58 23.581 -17.903 Q18.502 -29.225 18.502 -41.68 Q18.502 -66.237 35.675 -83.427 Q52.848 -100.617 77.382 -100.617 Q97.826 -100.617 113.618 -88.553 Q129.41 -76.489 134.202 -57.192 L143.109 -21.808 Q143.831 -19.203 142.191 -17.117 Q140.55 -15.032 137.816 -15.032 H123.437 V6.232 Q123.437 10.803 120.218 14.011 Q116.999 17.218 112.412 17.218 H97.637 V30.118 H86.612 V6.232 H112.412 Q112.412 6.232 112.412 6.232 Q112.412 6.232 112.412 6.232 V-26.018 H130.679 L123.577 -54.464 Q119.707 -69.913 106.762 -79.753 Q93.816 -89.592 77.418 -89.592 Q57.446 -89.592 43.467 -75.766 Q29.488 -61.94 29.488 -42.068 Q29.488 -31.811 33.694 -22.517 Q37.9 -13.224 45.62 -6.068 L48.838 -3.017 V30.118 H37.852 Z"/></g><g id="Regular-L" transform="matrix(1 0 0 1 1378.56 1556)"><path d="M72.562 -23.942 H82.237 V-65.867 H72.562 V-23.942 Z M91.913 -33.617 H101.588 V-59.417 H91.913 V-33.617 Z M53.212 -36.842 H62.888 V-59.417 H53.212 V-36.842 Z M38.7 29.27 V1.535 Q29.509 -6.85 24.429 -18.057 Q19.35 -29.264 19.35 -41.68 Q19.35 -65.867 36.281 -82.799 Q53.212 -99.73 77.4 -99.73 Q97.556 -99.73 113.117 -87.878 Q128.678 -76.026 133.354 -56.999 L142.222 -21.846 Q142.868 -19.589 141.416 -17.734 Q139.965 -15.88 137.546 -15.88 H122.55 V6.695 Q122.55 10.686 119.708 13.528 Q116.866 16.37 112.875 16.37 H96.75 V29.27 H87.075 V6.695 H112.875 Q112.875 6.695 112.875 6.695 Q112.875 6.695 112.875 6.695 V-25.555 H131.257 L124.001 -54.58 Q120.131 -70.221 107.07 -80.138 Q94.009 -90.055 77.4 -90.055 Q57.244 -90.055 43.134 -76.107 Q29.025 -62.159 29.025 -42.077 Q29.025 -31.689 33.27 -22.341 Q37.515 -12.992 45.311 -5.721 L48.375 -2.819 V29.27 H38.7 Z"/></g><g id="Light-L" transform="matrix(1 0 0 1 1082.77 1556)"><path d="M73.741 -25.121 H81.059 V-64.689 H73.741 V-25.121 Z M93.091 -34.796 H100.409 V-58.239 H93.091 V-34.796 Z M54.391 -38.021 H61.709 V-58.239 H54.391 V-38.021 Z M41.925 26.045 V0.047 Q32.734 -8.338 27.655 -19.173 Q22.575 -30.008 22.575 -41.725 Q22.575 -64.55 38.566 -80.527 Q54.556 -96.505 77.4 -96.505 Q96.192 -96.505 111.008 -85.273 Q125.824 -74.041 130.253 -56.13 L138.149 -24.828 Q138.712 -22.628 137.354 -20.866 Q135.996 -19.105 133.639 -19.105 H119.325 V3.842 Q119.325 7.631 116.568 10.388 Q113.811 13.145 110.022 13.145 H93.525 V26.045 H86.207 V5.827 H110.022 Q110.89 5.827 111.448 5.268 Q112.007 4.71 112.007 3.842 V-26.423 H130.141 L123.195 -54.394 Q119.387 -69.849 106.512 -79.518 Q93.637 -89.187 77.4 -89.187 Q57.603 -89.187 43.748 -75.473 Q29.893 -61.76 29.893 -42.015 Q29.893 -31.767 34.076 -22.619 Q38.259 -13.471 45.869 -6.397 L49.243 -3.191 V26.045 H41.925 Z"/></g><g id="Thin-L" transform="matrix(1 0 0 1 787.282 1556)"><path d="M74.919 -26.299 H79.881 V-63.511 H74.919 V-26.299 Z M94.269 -35.974 H99.231 V-57.061 H94.269 V-35.974 Z M55.569 -39.199 H60.531 V-57.061 H55.569 V-39.199 Z M45.15 22.82 V-1.442 Q35.959 -9.827 30.879 -20.29 Q25.8 -30.752 25.8 -41.77 Q25.8 -63.232 40.85 -78.256 Q55.9 -93.28 77.4 -93.28 Q94.827 -93.28 108.9 -82.669 Q122.972 -72.057 127.152 -55.262 L134.075 -27.81 Q134.557 -25.667 133.292 -23.998 Q132.027 -22.33 129.732 -22.33 H116.1 V0.989 Q116.1 4.577 113.429 7.249 Q110.757 9.92 107.169 9.92 H90.3 V22.82 H85.338 V4.958 H107.169 Q108.906 4.958 110.022 3.842 Q111.138 2.726 111.138 0.989 V-27.292 H129.025 L122.389 -54.208 Q118.643 -69.477 105.954 -78.898 Q93.265 -88.318 77.4 -88.318 Q57.963 -88.318 44.362 -74.84 Q30.762 -61.362 30.762 -41.953 Q30.762 -31.845 34.882 -22.897 Q39.003 -13.95 46.428 -7.073 L50.112 -3.563 V22.82 H45.15 Z"/></g><g id="Ultralight-L" transform="matrix(1 0 0 1 491.205 1556)"><path d="M75.626 -27.006 H79.174 V-62.804 H75.626 V-27.006 Z M94.976 -36.681 H98.524 V-56.354 H94.976 V-36.681 Z M56.276 -39.906 H59.824 V-56.354 H56.276 V-39.906 Z M47.085 20.885 V-2.335 Q37.894 -10.72 32.814 -20.959 Q27.735 -31.199 27.735 -41.797 Q27.735 -62.442 42.221 -76.893 Q56.706 -91.345 77.4 -91.345 Q94.009 -91.345 107.634 -81.106 Q121.26 -70.866 125.291 -54.741 L131.631 -29.599 Q132.064 -27.49 130.854 -25.877 Q129.645 -24.265 127.388 -24.265 H114.165 V-0.722 Q114.165 2.744 111.545 5.365 Q108.924 7.985 105.457 7.985 H88.365 V20.885 H84.817 V4.438 H105.457 Q107.715 4.438 109.166 2.986 Q110.618 1.535 110.618 -0.722 V-27.812 H128.355 L121.905 -54.096 Q118.196 -69.254 105.619 -78.526 Q93.041 -87.797 77.4 -87.797 Q58.179 -87.797 44.731 -74.46 Q31.283 -61.123 31.283 -41.915 Q31.283 -31.892 35.366 -23.064 Q39.45 -14.237 46.763 -7.478 L50.633 -3.786 V20.885 H47.085 Z"/></g><g id="Bold-M" transform="matrix(1 0 0 1 2281.8 1126)"><path d="M50.25 -24.73 H62.25 V-59.73 H50.25 V-24.73 Z M67.25 -33.48 H79.25 V-54.73 H67.25 V-33.48 Z M33.25 -34.73 H45.25 V-54.73 H33.25 V-34.73 Z M26.25 18.52 V-5.105 Q19.25 -12.105 15.25 -21.292 Q11.25 -30.48 11.25 -40.23 Q11.25 -60.542 25.457 -74.761 Q39.665 -88.98 59.961 -88.98 Q76.875 -88.98 89.938 -78.98 Q103 -68.98 107 -52.98 L113.75 -26.23 Q114.75 -22.48 112.398 -19.48 Q110.046 -16.48 106.125 -16.48 H98.75 V-7.23 Q98.75 -0.605 94.188 3.958 Q89.625 8.52 83 8.52 H78.75 V18.52 H63 V-7.23 H83 Q83 -7.23 83 -7.23 Q83 -7.23 83 -7.23 V-32.23 H96 L91.875 -49.105 Q89 -59.605 80.125 -66.417 Q71.25 -73.23 60 -73.23 Q46.329 -73.23 36.664 -63.688 Q27 -54.145 27 -40.48 Q27 -33.48 29.875 -26.98 Q32.75 -20.48 38.125 -15.73 L42 -12.105 V18.52 H26.25 Z"/></g><g id="Semibold-M" transform="matrix(1 0 0 1 1985.97 1126)"><path d="M52.315 -24.947 H63.446 V-59.947 H52.315 V-24.947 Z M68.446 -33.154 H79.576 V-54.947 H68.446 V-33.154 Z M36.185 -34.947 H47.315 V-54.947 H36.185 V-34.947 Z M27.88 16.89 V-5.811 Q20.826 -12.594 16.853 -21.564 Q12.88 -30.534 12.88 -40.23 Q12.88 -59.863 26.617 -73.606 Q40.354 -87.35 59.978 -87.35 Q76.332 -87.35 88.959 -77.703 Q101.587 -68.056 105.424 -52.6 L112.065 -26.339 Q112.902 -23.186 110.921 -20.648 Q108.939 -18.11 105.636 -18.11 H97.12 V-6.36 Q97.12 -0.822 93.264 3.034 Q89.408 6.89 83.87 6.89 H77.12 V16.89 H63.87 V-6.36 H83.87 Q83.87 -6.36 83.87 -6.36 Q83.87 -6.36 83.87 -6.36 V-31.36 H97.087 L92.69 -49.322 Q89.815 -60.203 80.723 -67.151 Q71.63 -74.099 60 -74.099 Q45.968 -74.099 36.049 -64.304 Q26.131 -54.508 26.131 -40.48 Q26.131 -33.263 29.087 -26.654 Q32.044 -20.045 37.527 -15.078 L41.13 -11.725 V16.89 H27.88 Z"/></g><g id="Medium-M" transform="matrix(1 0 0 1 1689.91 1126)"><path d="M53.864 -25.11 H64.342 V-60.11 H53.864 V-25.11 Z M69.342 -32.909 H79.821 V-55.11 H69.342 V-32.909 Z M38.386 -35.11 H48.864 V-55.11 H38.386 V-35.11 Z M29.103 15.667 V-6.341 Q22.008 -12.961 18.056 -21.768 Q14.103 -30.575 14.103 -40.23 Q14.103 -59.354 27.487 -72.74 Q40.871 -86.127 59.991 -86.127 Q75.924 -86.127 88.225 -76.745 Q100.527 -67.363 104.242 -52.314 L110.802 -26.42 Q111.516 -23.716 109.812 -21.525 Q108.109 -19.333 105.269 -19.333 H95.897 V-5.708 Q95.897 -0.985 92.571 2.341 Q89.245 5.667 84.522 5.667 H75.897 V15.667 H64.522 V-5.708 H84.522 Q84.522 -5.708 84.522 -5.708 Q84.522 -5.708 84.522 -5.708 V-30.708 H97.902 L93.302 -49.485 Q90.427 -60.651 81.171 -67.701 Q71.916 -74.752 60 -74.752 Q45.698 -74.752 35.588 -64.766 Q25.478 -54.78 25.478 -40.48 Q25.478 -33.1 28.496 -26.409 Q31.514 -19.719 37.079 -14.589 L40.478 -11.439 V15.667 H29.103 Z"/></g><g id="Regular-M" transform="matrix(1 0 0 1 1394.06 1126)"><path d="M55 -25.23 H65 V-60.23 H55 V-25.23 Z M70 -32.73 H80 V-55.23 H70 V-32.73 Z M40 -35.23 H50 V-55.23 H40 V-35.23 Z M30 14.77 V-6.73 Q22.875 -13.23 18.938 -21.917 Q15 -30.605 15 -40.23 Q15 -58.98 28.125 -72.105 Q41.25 -85.23 60 -85.23 Q75.625 -85.23 87.688 -76.042 Q99.75 -66.855 103.375 -52.105 L109.875 -26.48 Q110.5 -24.105 109 -22.167 Q107.5 -20.23 105 -20.23 H95 V-5.23 Q95 -1.105 92.062 1.833 Q89.125 4.77 85 4.77 H75 V14.77 H65 V-5.23 H85 Q85 -5.23 85 -5.23 Q85 -5.23 85 -5.23 V-30.23 H98.5 L93.75 -49.605 Q90.875 -60.98 81.5 -68.105 Q72.125 -75.23 60 -75.23 Q45.5 -75.23 35.25 -65.105 Q25 -54.98 25 -40.48 Q25 -32.98 28.062 -26.23 Q31.125 -19.48 36.75 -14.23 L40 -11.23 V14.77 H30 Z"/></g><g id="Light-M" transform="matrix(1 0 0 1 1098.18 1126)"><path d="M56.25 -26.48 H63.75 V-58.98 H56.25 V-26.48 Z M71.25 -33.98 H78.75 V-53.98 H71.25 V-33.98 Z M41.25 -36.48 H48.75 V-53.98 H41.25 V-36.48 Z M32.5 12.27 V-7.884 Q25.375 -14.384 21.438 -22.783 Q17.5 -31.182 17.5 -40.265 Q17.5 -57.958 29.896 -70.344 Q42.292 -82.73 60 -82.73 Q74.567 -82.73 86.053 -74.023 Q97.538 -65.316 100.971 -51.432 L106.813 -28.359 Q107.375 -26.22 106.019 -24.475 Q104.663 -22.73 102.404 -22.73 H92.5 V-6.769 Q92.5 -3.04 89.845 -0.385 Q87.19 2.27 83.461 2.27 H72.5 V12.27 H65 V-5.23 H83.461 Q84.135 -5.23 84.567 -5.663 Q85 -6.095 85 -6.769 V-30.23 H98.5 L93.75 -49.605 Q90.875 -61.028 81.452 -68.129 Q72.029 -75.23 60 -75.23 Q45.5 -75.23 35.25 -65.091 Q25 -54.952 25 -40.432 Q25 -32.944 28.062 -26.205 Q31.125 -19.466 36.75 -14.225 L40 -11.23 V12.27 H32.5 Z"/></g><g id="Thin-M" transform="matrix(1 0 0 1 802.565 1126)"><path d="M57.5 -27.73 H62.5 V-57.73 H57.5 V-27.73 Z M72.5 -35.23 H77.5 V-52.73 H72.5 V-35.23 Z M42.5 -37.73 H47.5 V-52.73 H42.5 V-37.73 Z M35 9.77 V-9.038 Q27.875 -15.538 23.938 -23.648 Q20 -31.759 20 -40.299 Q20 -56.937 31.667 -68.584 Q43.333 -80.23 60 -80.23 Q73.51 -80.23 84.418 -72.004 Q95.327 -63.778 98.567 -50.759 L103.751 -30.238 Q104.25 -28.336 103.038 -26.783 Q101.827 -25.23 99.808 -25.23 H90 V-8.307 Q90 -4.975 87.627 -2.603 Q85.255 -0.23 81.923 -0.23 H70 V9.77 H65 V-5.23 H81.923 Q83.269 -5.23 84.135 -6.095 Q85 -6.961 85 -8.307 V-30.23 H98.5 L93.75 -49.605 Q90.875 -61.076 81.404 -68.153 Q71.933 -75.23 60 -75.23 Q45.5 -75.23 35.25 -65.077 Q25 -54.924 25 -40.384 Q25 -32.908 28.062 -26.181 Q31.125 -19.453 36.75 -14.22 L40 -11.23 V9.77 H35 Z"/></g><g id="Ultralight-M" transform="matrix(1 0 0 1 506.415 1126)"><path d="M58.25 -28.48 H61.75 V-56.98 H58.25 V-28.48 Z M73.25 -35.98 H76.75 V-51.98 H73.25 V-35.98 Z M43.25 -38.48 H46.75 V-51.98 H43.25 V-38.48 Z M36.5 8.27 V-9.73 Q29.375 -16.23 25.438 -24.167 Q21.5 -32.105 21.5 -40.32 Q21.5 -56.324 32.729 -67.527 Q43.958 -78.73 60 -78.73 Q72.875 -78.73 83.438 -70.792 Q94 -62.855 97.125 -50.355 L101.915 -31.365 Q102.375 -29.605 101.25 -28.167 Q100.125 -26.73 98.25 -26.73 H88.5 V-9.23 Q88.5 -6.136 86.297 -3.933 Q84.094 -1.73 81 -1.73 H68.5 V8.27 H65 V-5.23 H81 Q82.75 -5.23 83.875 -6.355 Q85 -7.48 85 -9.23 V-30.23 H98.5 L93.75 -49.605 Q90.875 -61.105 81.375 -68.167 Q71.875 -75.23 60 -75.23 Q45.5 -75.23 35.25 -65.069 Q25 -54.907 25 -40.355 Q25 -32.887 28.062 -26.166 Q31.125 -19.445 36.75 -14.217 L40 -11.23 V8.27 H36.5 Z"/></g><g id="Bold-S" transform="matrix(1 0 0 1 2294.23 696)"><path d="M40.042 -27.734 H48.721 V-53.771 H40.042 V-27.734 Z M53.455 -35.822 H62.134 V-51.404 H53.455 V-35.822 Z M26.629 -34.835 H35.308 V-49.037 H26.629 V-34.835 Z M23.078 5.601 V-13.335 Q17.555 -18.464 14.399 -25.522 Q11.243 -32.581 11.243 -40.063 Q11.243 -55.062 21.791 -65.561 Q32.339 -76.061 47.408 -76.061 Q59.175 -76.061 68.544 -69.65 Q77.914 -63.239 80.971 -52.982 L87.678 -30.101 Q88.467 -27.293 86.759 -25.048 Q85.051 -22.803 82.155 -22.803 H78.703 V-15.505 Q78.703 -10.603 75.335 -7.235 Q71.967 -3.867 67.065 -3.867 H62.134 V5.601 H50.496 V-15.505 H67.065 Q67.065 -15.505 67.065 -15.505 Q67.065 -15.505 67.065 -15.505 V-34.441 H74.561 L69.925 -49.531 Q67.755 -55.941 61.493 -60.182 Q55.23 -64.423 47.439 -64.423 Q37.145 -64.423 30.013 -57.325 Q22.881 -50.227 22.881 -40.063 Q22.881 -34.645 25.199 -29.612 Q27.516 -24.578 31.757 -21.225 L34.716 -18.562 V5.601 H23.078 Z"/></g><g id="Semibold-S" transform="matrix(1 0 0 1 1998.1 696)"><path d="M41.671 -27.906 H49.664 V-53.943 H41.671 V-27.906 Z M54.398 -35.564 H62.391 V-51.576 H54.398 V-35.564 Z M28.944 -35.007 H36.937 V-49.209 H28.944 V-35.007 Z M24.365 4.314 V-13.893 Q18.799 -18.85 15.664 -25.737 Q12.53 -32.624 12.53 -40.063 Q12.53 -54.526 22.706 -64.65 Q32.883 -74.774 47.421 -74.774 Q58.746 -74.774 67.773 -68.642 Q76.799 -62.511 79.728 -52.682 L86.348 -30.187 Q87.009 -27.85 85.593 -25.97 Q84.177 -24.09 81.769 -24.09 H77.416 V-14.819 Q77.416 -10.775 74.606 -7.964 Q71.795 -5.154 67.751 -5.154 H60.847 V4.314 H51.182 V-14.819 H67.751 Q67.751 -14.819 67.751 -14.819 Q67.751 -14.819 67.751 -14.819 V-33.755 H75.418 L70.568 -49.702 Q68.399 -56.413 61.964 -60.761 Q55.53 -65.109 47.439 -65.109 Q36.861 -65.109 29.528 -57.811 Q22.195 -50.514 22.195 -40.063 Q22.195 -34.474 24.577 -29.355 Q26.959 -24.235 31.286 -20.711 L34.03 -18.262 V4.314 H24.365 Z"/></g><g id="Medium-S" transform="matrix(1 0 0 1 1701.85 696)"><path d="M42.893 -28.035 H50.372 V-54.072 H42.893 V-28.035 Z M55.106 -35.372 H62.584 V-51.705 H55.106 V-35.372 Z M30.681 -35.136 H38.159 V-49.338 H30.681 V-35.136 Z M25.329 3.35 V-14.311 Q19.731 -19.139 16.613 -25.898 Q13.494 -32.656 13.494 -40.063 Q13.494 -54.124 23.393 -63.967 Q33.291 -73.81 47.431 -73.81 Q58.425 -73.81 67.194 -67.887 Q75.963 -61.964 78.795 -52.457 L85.351 -30.252 Q85.915 -28.268 84.719 -26.661 Q83.523 -25.054 81.479 -25.054 H76.452 V-14.304 Q76.452 -10.903 74.059 -8.511 Q71.667 -6.118 68.266 -6.118 H59.883 V3.35 H51.697 V-14.304 H68.266 Q68.266 -14.304 68.266 -14.304 Q68.266 -14.304 68.266 -14.304 V-33.24 H76.061 L71.051 -49.831 Q68.881 -56.767 62.318 -61.195 Q55.755 -65.624 47.439 -65.624 Q36.648 -65.624 29.164 -58.176 Q21.68 -50.728 21.68 -40.063 Q21.68 -34.345 24.111 -29.162 Q26.541 -23.978 30.932 -20.325 L33.515 -18.037 V3.35 H25.329 Z"/></g><g id="Regular-S" transform="matrix(1 0 0 1 1405.73 696)"><path d="M43.79 -28.129 H50.891 V-54.166 H43.79 V-28.129 Z M55.625 -35.23 H62.726 V-51.799 H55.625 V-35.23 Z M31.955 -35.23 H39.056 V-49.432 H31.955 V-35.23 Z M26.037 2.642 V-14.617 Q20.415 -19.351 17.309 -26.015 Q14.202 -32.679 14.202 -40.063 Q14.202 -53.829 23.896 -63.466 Q33.59 -73.102 47.439 -73.102 Q58.189 -73.102 66.769 -67.332 Q75.35 -61.563 78.111 -52.292 L84.62 -30.299 Q85.113 -28.575 84.078 -27.168 Q83.042 -25.762 81.267 -25.762 H75.744 V-13.927 Q75.744 -10.998 73.658 -8.912 Q71.572 -6.826 68.643 -6.826 H59.175 V2.642 H52.074 V-13.927 H68.643 Q68.643 -13.927 68.643 -13.927 Q68.643 -13.927 68.643 -13.927 V-32.863 H76.533 L71.404 -49.925 Q69.235 -57.026 62.578 -61.514 Q55.92 -66.001 47.439 -66.001 Q36.491 -66.001 28.897 -58.443 Q21.303 -50.886 21.303 -40.063 Q21.303 -34.251 23.769 -29.02 Q26.234 -23.789 30.672 -20.042 L33.138 -17.872 V2.642 H26.037 Z"/></g><g id="Light-S" transform="matrix(1 0 0 1 1109.75 696)"><path d="M44.776 -29.115 H49.904 V-53.18 H44.776 V-29.115 Z M56.611 -36.216 H61.739 V-50.813 H56.611 V-36.216 Z M32.941 -36.216 H38.069 V-48.446 H32.941 V-36.216 Z M28.01 0.669 V-15.528 Q22.388 -20.262 19.281 -26.698 Q16.175 -33.135 16.175 -40.09 Q16.175 -53.023 25.293 -62.076 Q34.412 -71.129 47.439 -71.129 Q57.354 -71.129 65.479 -65.739 Q73.604 -60.349 76.214 -51.761 L82.204 -31.781 Q82.648 -30.244 81.726 -28.989 Q80.804 -27.735 79.218 -27.735 H73.771 V-15.141 Q73.771 -12.525 71.908 -10.662 Q70.045 -8.799 67.429 -8.799 H57.202 V0.669 H52.074 V-13.927 H67.429 Q67.96 -13.927 68.302 -14.268 Q68.643 -14.61 68.643 -15.141 V-32.863 H76.533 L71.404 -49.925 Q69.235 -57.064 62.54 -61.532 Q55.845 -66.001 47.439 -66.001 Q36.491 -66.001 28.897 -58.432 Q21.303 -50.864 21.303 -40.025 Q21.303 -34.223 23.769 -29.001 Q26.234 -23.779 30.672 -20.038 L33.138 -17.872 V0.669 H28.01 Z"/></g><g id="Thin-S" transform="matrix(1 0 0 1 814.015 696)"><path d="M45.762 -30.101 H48.918 V-52.193 H45.762 V-30.101 Z M57.597 -37.202 H60.753 V-49.826 H57.597 V-37.202 Z M33.927 -37.202 H37.083 V-47.459 H33.927 V-37.202 Z M29.982 -1.303 V-16.438 Q24.36 -21.172 21.254 -27.381 Q18.147 -33.59 18.147 -40.117 Q18.147 -52.217 26.69 -60.687 Q35.234 -69.157 47.439 -69.157 Q56.52 -69.157 64.19 -64.146 Q71.86 -59.135 74.318 -51.23 L79.789 -33.264 Q80.182 -31.913 79.374 -30.81 Q78.566 -29.707 77.17 -29.707 H71.799 V-16.355 Q71.799 -14.051 70.159 -12.411 Q68.519 -10.771 66.215 -10.771 H55.23 V-1.303 H52.074 V-13.927 H66.215 Q67.277 -13.927 67.96 -14.61 Q68.643 -15.293 68.643 -16.355 V-32.863 H76.533 L71.404 -49.925 Q69.235 -57.102 62.502 -61.552 Q55.769 -66.001 47.439 -66.001 Q36.491 -66.001 28.897 -58.421 Q21.303 -50.842 21.303 -39.987 Q21.303 -34.194 23.769 -28.981 Q26.234 -23.768 30.672 -20.034 L33.138 -17.872 V-1.303 H29.982 Z"/></g><g id="Ultralight-S" transform="matrix(1 0 0 1 517.792 696)"><path d="M46.354 -30.693 H48.326 V-51.602 H46.354 V-30.693 Z M58.189 -37.794 H60.161 V-49.235 H58.189 V-37.794 Z M34.519 -37.794 H36.491 V-46.868 H34.519 V-37.794 Z M31.166 -2.486 V-16.984 Q25.544 -21.718 22.437 -27.791 Q19.331 -33.863 19.331 -40.134 Q19.331 -51.734 27.529 -59.854 Q35.727 -67.973 47.439 -67.973 Q56.019 -67.973 63.416 -63.19 Q70.813 -58.407 73.18 -50.911 L78.339 -34.153 Q78.703 -32.914 77.963 -31.902 Q77.223 -30.89 75.941 -30.89 H70.615 V-17.083 Q70.615 -14.967 69.109 -13.461 Q67.603 -11.954 65.487 -11.954 H54.047 V-2.486 H52.074 V-13.927 H65.487 Q66.868 -13.927 67.755 -14.815 Q68.643 -15.702 68.643 -17.083 V-32.863 H76.533 L71.404 -49.925 Q69.235 -57.125 62.479 -61.563 Q55.723 -66.001 47.439 -66.001 Q36.491 -66.001 28.897 -58.415 Q21.303 -50.828 21.303 -39.964 Q21.303 -34.177 23.769 -28.97 Q26.234 -23.762 30.672 -20.032 L33.138 -17.872 V-2.486 H31.166 Z"/></g></g></svg>