<svg xmlns="http://www.w3.org/2000/svg" version="1.1" width="3300" height="2000"><g id="Notes"><style>
    text {
      font-family: monospace;
      text-anchor: middle;
    }
    text.emphasis {
      font-weight:bold;
    }
    text.lanchor {
      text-anchor: start;
    }
  </style><rect height="2200" id="artboard" fill="white" width="3300" x="0" y="0"/><line id="" style="fill:none;stroke:black;stroke-width:0.5;" x1="263" x2="3036" y1="292" y2="292"/><text class="lanchor emphasis" transform="matrix(1 0 0 1 263 322)">Weight/Scale Variations</text><text transform="matrix(1 0 0 1 559.711 322)">Ultralight</text><text transform="matrix(1 0 0 1 856.422 322)">Thin</text><text transform="matrix(1 0 0 1 1153.13 322)">Light</text><text transform="matrix(1 0 0 1 1449.84 322)">Regular</text><text transform="matrix(1 0 0 1 1746.56 322)">Medium</text><text transform="matrix(1 0 0 1 2043.27 322)">Semibold</text><text transform="matrix(1 0 0 1 2339.98 322)">Bold</text><text transform="matrix(1 0 0 1 2636.69 322)">Heavy</text><text transform="matrix(1 0 0 1 2933.4 322)">Black</text><text id="template-version" style="text-anchor: end;" transform="matrix(1 0 0 1 3036 1933)">Template v.1.0</text><text class="lanchor" transform="matrix(1 0 0 1 263 726)">Small</text><text class="lanchor" transform="matrix(1 0 0 1 263 1156)">Medium</text><text class="lanchor" transform="matrix(1 0 0 1 263 1586)">Large</text></g><g id="Guides"><g id="H-reference" style="fill:#27AAE1;stroke:none;" transform="matrix(1 0 0 1 339 696)"><path d="M 54.9316 0 L 57.666 0 L 30.5664 -70.459 L 28.0762 -70.459 L 0.976562 0 L 3.66211 0 L 12.9395 -24.4629 L 45.7031 -24.4629 Z M 29.1992 -67.0898 L 29.4434 -67.0898 L 44.8242 -26.709 L 13.8184 -26.709 Z"/></g><line id="Baseline-S" style="fill:none;stroke:#27AAE1;opacity:1;stroke-width:0.577;" x1="263" x2="3036" y1="696" y2="696"/><line id="Capline-S" style="fill:none;stroke:#27AAE1;opacity:1;stroke-width:0.577;" x1="263" x2="3036" y1="625.541" y2="625.541"/><g id="H-reference" style="fill:#27AAE1;stroke:none;" transform="matrix(1 0 0 1 339 1126)"><path d="M 54.9316 0 L 57.666 0 L 30.5664 -70.459 L 28.0762 -70.459 L 0.976562 0 L 3.66211 0 L 12.9395 -24.4629 L 45.7031 -24.4629 Z M 29.1992 -67.0898 L 29.4434 -67.0898 L 44.8242 -26.709 L 13.8184 -26.709 Z"/></g><line id="Baseline-M" style="fill:none;stroke:#27AAE1;opacity:1;stroke-width:0.577;" x1="263" x2="3036" y1="1126" y2="1126"/><line id="Capline-M" style="fill:none;stroke:#27AAE1;opacity:1;stroke-width:0.577;" x1="263" x2="3036" y1="1055.54" y2="1055.54"/><g id="H-reference" style="fill:#27AAE1;stroke:none;" transform="matrix(1 0 0 1 339 1556)"><path d="M 54.9316 0 L 57.666 0 L 30.5664 -70.459 L 28.0762 -70.459 L 0.976562 0 L 3.66211 0 L 12.9395 -24.4629 L 45.7031 -24.4629 Z M 29.1992 -67.0898 L 29.4434 -67.0898 L 44.8242 -26.709 L 13.8184 -26.709 Z"/></g><line id="Baseline-L" style="fill:none;stroke:#27AAE1;opacity:1;stroke-width:0.577;" x1="263" x2="3036" y1="1556" y2="1556"/><line id="Capline-L" style="fill:none;stroke:#27AAE1;opacity:1;stroke-width:0.577;" x1="263" x2="3036" y1="1485.54" y2="1485.54"/><rect height="119.336" id="left-margin" style="fill:darkred;stroke:none;opacity:0.4;" width="12.4512" x="1394.06" y="1030.79"/><rect height="119.336" id="right-margin" style="fill:darkgreen;stroke:none;opacity:0.4;" width="12.4512" x="1502.5112" y="1030.79"/><rect x="1406.5112" y="1045" width="96" height="96" fill="none" stroke="blue" stroke-dasharray="5"/><rect x="1394.06" y="1030.79" width="120.9024" height="119.336" fill="none" stroke="blue"/></g><g id="Symbols"><g id="Bold-L" transform="matrix(1 0 0 1 2266 1556)"><path d="M29.796 -25.716 Q25.961 -25.716 23.139 -28.506 Q20.317 -31.295 20.317 -35.213 Q20.317 -39.261 23.119 -42.002 Q25.92 -44.744 29.854 -44.744 Q33.637 -44.744 36.572 -42.02 Q39.506 -39.295 39.506 -35.328 Q39.506 -31.36 36.569 -28.538 Q33.631 -25.716 29.796 -25.716 Z M77.498 -25.716 Q73.53 -25.716 70.708 -28.506 Q67.886 -31.295 67.886 -35.213 Q67.886 -39.261 70.676 -42.002 Q73.466 -44.744 77.383 -44.744 Q81.431 -44.744 84.172 -42.02 Q86.914 -39.295 86.914 -35.328 Q86.914 -31.36 84.19 -28.538 Q81.465 -25.716 77.498 -25.716 Z M124.952 -25.716 Q120.949 -25.716 118.121 -28.506 Q115.294 -31.295 115.294 -35.213 Q115.294 -39.261 118.144 -42.002 Q120.995 -44.744 124.997 -44.744 Q129 -44.744 131.822 -42.02 Q134.644 -39.295 134.644 -35.328 Q134.644 -31.36 131.799 -28.538 Q128.954 -25.716 124.952 -25.716 Z"/></g><g id="Semibold-L" transform="matrix(1 0 0 1 1970.27 1556)"><path d="M31.414 -26.487 Q27.854 -26.487 25.278 -29.056 Q22.701 -31.624 22.701 -35.23 Q22.701 -38.911 25.276 -41.442 Q27.851 -43.973 31.466 -43.973 Q34.997 -43.973 37.637 -41.441 Q40.277 -38.91 40.277 -35.275 Q40.277 -31.64 37.626 -29.064 Q34.974 -26.487 31.414 -26.487 Z M77.445 -26.487 Q73.81 -26.487 71.234 -29.056 Q68.657 -31.624 68.657 -35.23 Q68.657 -38.911 71.226 -41.442 Q73.794 -43.973 77.4 -43.973 Q81.081 -43.973 83.612 -41.441 Q86.143 -38.91 86.143 -35.275 Q86.143 -31.64 83.611 -29.064 Q81.08 -26.487 77.445 -26.487 Z M123.337 -26.487 Q119.682 -26.487 117.102 -29.056 Q114.523 -31.624 114.523 -35.23 Q114.523 -38.911 117.125 -41.442 Q119.728 -43.973 123.382 -43.973 Q127.037 -43.973 129.614 -41.441 Q132.19 -38.91 132.19 -35.275 Q132.19 -31.64 129.591 -29.064 Q126.991 -26.487 123.337 -26.487 Z"/></g><g id="Medium-L" transform="matrix(1 0 0 1 1674.31 1556)"><path d="M32.627 -27.066 Q29.274 -27.066 26.881 -29.468 Q24.489 -31.87 24.489 -35.243 Q24.489 -38.648 26.894 -41.021 Q29.299 -43.394 32.676 -43.394 Q36.017 -43.394 38.436 -41.008 Q40.856 -38.621 40.856 -35.236 Q40.856 -31.851 38.418 -29.458 Q35.981 -27.066 32.627 -27.066 Z M77.406 -27.066 Q74.021 -27.066 71.628 -29.468 Q69.236 -31.87 69.236 -35.243 Q69.236 -38.648 71.638 -41.021 Q74.04 -43.394 77.413 -43.394 Q80.818 -43.394 83.191 -41.008 Q85.564 -38.621 85.564 -35.236 Q85.564 -31.851 83.178 -29.458 Q80.791 -27.066 77.406 -27.066 Z M122.125 -27.066 Q118.732 -27.066 116.338 -29.468 Q113.944 -31.87 113.944 -35.243 Q113.944 -38.648 116.361 -41.021 Q118.778 -43.394 122.171 -43.394 Q125.565 -43.394 127.957 -41.008 Q130.35 -38.621 130.35 -35.236 Q130.35 -31.851 127.934 -29.458 Q125.519 -27.066 122.125 -27.066 Z"/></g><g id="Regular-L" transform="matrix(1 0 0 1 1378.56 1556)"><path d="M33.517 -27.49 Q30.315 -27.49 28.058 -29.77 Q25.8 -32.051 25.8 -35.253 Q25.8 -38.455 28.08 -40.712 Q30.361 -42.97 33.563 -42.97 Q36.765 -42.97 39.023 -40.69 Q41.28 -38.409 41.28 -35.207 Q41.28 -32.005 39 -29.747 Q36.719 -27.49 33.517 -27.49 Z M77.377 -27.49 Q74.175 -27.49 71.918 -29.77 Q69.66 -32.051 69.66 -35.253 Q69.66 -38.455 71.94 -40.712 Q74.221 -42.97 77.423 -42.97 Q80.625 -42.97 82.883 -40.69 Q85.14 -38.409 85.14 -35.207 Q85.14 -32.005 82.86 -29.747 Q80.579 -27.49 77.377 -27.49 Z M121.237 -27.49 Q118.035 -27.49 115.778 -29.77 Q113.52 -32.051 113.52 -35.253 Q113.52 -38.455 115.8 -40.712 Q118.081 -42.97 121.283 -42.97 Q124.485 -42.97 126.743 -40.69 Q129 -38.409 129 -35.207 Q129 -32.005 126.72 -29.747 Q124.439 -27.49 121.237 -27.49 Z"/></g><g id="Light-L" transform="matrix(1 0 0 1 1082.77 1556)"><path d="M36.37 -29.351 Q33.936 -29.351 32.225 -31.083 Q30.514 -32.816 30.514 -35.25 Q30.514 -37.683 32.247 -39.396 Q33.979 -41.109 36.413 -41.109 Q38.846 -41.109 40.59 -39.377 Q42.334 -37.644 42.334 -35.21 Q42.334 -32.777 40.582 -31.064 Q38.83 -29.351 36.37 -29.351 Z M77.38 -29.351 Q74.947 -29.351 73.234 -31.083 Q71.521 -32.816 71.521 -35.25 Q71.521 -37.683 73.253 -39.396 Q74.986 -41.109 77.42 -41.109 Q79.853 -41.109 81.566 -39.377 Q83.279 -37.644 83.279 -35.21 Q83.279 -32.777 81.547 -31.064 Q79.814 -29.351 77.38 -29.351 Z M118.387 -29.351 Q115.954 -29.351 114.21 -31.083 Q112.466 -32.816 112.466 -35.25 Q112.466 -37.683 114.218 -39.396 Q115.97 -41.109 118.43 -41.109 Q120.864 -41.109 122.575 -39.377 Q124.286 -37.644 124.286 -35.21 Q124.286 -32.777 122.553 -31.064 Q120.821 -29.351 118.387 -29.351 Z"/></g><g id="Thin-L" transform="matrix(1 0 0 1 787.282 1556)"><path d="M39.223 -31.211 Q37.556 -31.211 36.391 -32.397 Q35.227 -33.582 35.227 -35.246 Q35.227 -36.911 36.412 -38.08 Q37.598 -39.249 39.262 -39.249 Q40.927 -39.249 42.158 -38.063 Q43.389 -36.878 43.389 -35.214 Q43.389 -33.549 42.165 -32.38 Q40.941 -31.211 39.223 -31.211 Z M77.384 -31.211 Q75.719 -31.211 74.55 -32.397 Q73.381 -33.582 73.381 -35.246 Q73.381 -36.911 74.567 -38.08 Q75.752 -39.249 77.416 -39.249 Q79.081 -39.249 80.25 -38.063 Q81.419 -36.878 81.419 -35.214 Q81.419 -33.549 80.233 -32.38 Q79.048 -31.211 77.384 -31.211 Z M115.538 -31.211 Q113.873 -31.211 112.642 -32.397 Q111.411 -33.582 111.411 -35.246 Q111.411 -36.911 112.635 -38.08 Q113.859 -39.249 115.577 -39.249 Q117.244 -39.249 118.409 -38.063 Q119.573 -36.878 119.573 -35.214 Q119.573 -33.549 118.388 -32.38 Q117.202 -31.211 115.538 -31.211 Z"/></g><g id="Ultralight-L" transform="matrix(1 0 0 1 491.205 1556)"><path d="M40.935 -32.327 Q39.728 -32.327 38.892 -33.184 Q38.055 -34.041 38.055 -35.244 Q38.055 -36.447 38.912 -37.29 Q39.769 -38.132 40.972 -38.132 Q42.175 -38.132 43.098 -37.276 Q44.021 -36.419 44.021 -35.216 Q44.021 -34.013 43.115 -33.17 Q42.208 -32.327 40.935 -32.327 Z M77.386 -32.327 Q76.183 -32.327 75.34 -33.184 Q74.498 -34.041 74.498 -35.244 Q74.498 -36.447 75.354 -37.29 Q76.211 -38.132 77.414 -38.132 Q78.617 -38.132 79.46 -37.276 Q80.303 -36.419 80.303 -35.216 Q80.303 -34.013 79.446 -33.17 Q78.589 -32.327 77.386 -32.327 Z M113.828 -32.327 Q112.625 -32.327 111.702 -33.184 Q110.779 -34.041 110.779 -35.244 Q110.779 -36.447 111.685 -37.29 Q112.592 -38.132 113.865 -38.132 Q115.072 -38.132 115.908 -37.276 Q116.745 -36.419 116.745 -35.216 Q116.745 -34.013 115.888 -33.17 Q115.031 -32.327 113.828 -32.327 Z"/></g><g id="Bold-M" transform="matrix(1 0 0 1 2281.8 1126)"><path d="M26.178 -23.355 Q21.25 -23.355 17.75 -26.843 Q14.25 -30.331 14.25 -35.23 Q14.25 -40.23 17.738 -43.667 Q21.227 -47.105 26.125 -47.105 Q31.075 -47.105 34.6 -43.667 Q38.125 -40.23 38.125 -35.292 Q38.125 -30.355 34.616 -26.855 Q31.106 -23.355 26.178 -23.355 Z M60.062 -23.355 Q55.125 -23.355 51.625 -26.843 Q48.125 -30.331 48.125 -35.23 Q48.125 -40.23 51.613 -43.667 Q55.102 -47.105 60 -47.105 Q65 -47.105 68.438 -43.667 Q71.875 -40.23 71.875 -35.292 Q71.875 -30.355 68.438 -26.855 Q65 -23.355 60.062 -23.355 Z M93.91 -23.355 Q88.946 -23.355 85.41 -26.843 Q81.875 -30.331 81.875 -35.23 Q81.875 -40.23 85.41 -43.667 Q88.946 -47.105 93.91 -47.105 Q98.875 -47.105 102.312 -43.667 Q105.75 -40.23 105.75 -35.292 Q105.75 -30.355 102.312 -26.855 Q98.875 -23.355 93.91 -23.355 Z"/></g><g id="Semibold-M" transform="matrix(1 0 0 1 1985.97 1126)"><path d="M27.84 -24.17 Q23.261 -24.17 20.005 -27.419 Q16.75 -30.668 16.75 -35.23 Q16.75 -39.85 19.999 -43.07 Q23.247 -46.29 27.81 -46.29 Q32.401 -46.29 35.671 -43.07 Q38.94 -39.85 38.94 -35.265 Q38.94 -30.681 35.679 -27.426 Q32.419 -24.17 27.84 -24.17 Z M60.035 -24.17 Q55.451 -24.17 52.196 -27.419 Q48.94 -30.668 48.94 -35.23 Q48.94 -39.85 52.189 -43.07 Q55.438 -46.29 60 -46.29 Q64.62 -46.29 67.84 -43.07 Q71.06 -39.85 71.06 -35.265 Q71.06 -30.681 67.84 -27.426 Q64.62 -24.17 60.035 -24.17 Z M92.21 -24.17 Q87.611 -24.17 84.335 -27.419 Q81.06 -30.668 81.06 -35.23 Q81.06 -39.85 84.335 -43.07 Q87.611 -46.29 92.21 -46.29 Q96.81 -46.29 100.03 -43.07 Q103.25 -39.85 103.25 -35.265 Q103.25 -30.681 100.03 -27.426 Q96.81 -24.17 92.21 -24.17 Z"/></g><g id="Medium-M" transform="matrix(1 0 0 1 1689.91 1126)"><path d="M29.086 -24.782 Q24.769 -24.782 21.697 -27.851 Q18.625 -30.92 18.625 -35.23 Q18.625 -39.564 21.694 -42.621 Q24.763 -45.678 29.073 -45.678 Q33.396 -45.678 36.474 -42.621 Q39.552 -39.564 39.552 -35.245 Q39.552 -30.926 36.477 -27.854 Q33.403 -24.782 29.086 -24.782 Z M60.015 -24.782 Q55.696 -24.782 52.624 -27.851 Q49.552 -30.92 49.552 -35.23 Q49.552 -39.564 52.621 -42.621 Q55.69 -45.678 60 -45.678 Q64.334 -45.678 67.391 -42.621 Q70.448 -39.564 70.448 -35.245 Q70.448 -30.926 67.391 -27.854 Q64.334 -24.782 60.015 -24.782 Z M90.935 -24.782 Q86.609 -24.782 83.529 -27.851 Q80.448 -30.92 80.448 -35.23 Q80.448 -39.564 83.529 -42.621 Q86.609 -45.678 90.935 -45.678 Q95.261 -45.678 98.318 -42.621 Q101.375 -39.564 101.375 -35.245 Q101.375 -30.926 98.318 -27.854 Q95.261 -24.782 90.935 -24.782 Z"/></g><g id="Regular-M" transform="matrix(1 0 0 1 1394.06 1126)"><path d="M30 -25.23 Q25.875 -25.23 22.938 -28.167 Q20 -31.105 20 -35.23 Q20 -39.355 22.938 -42.292 Q25.875 -45.23 30 -45.23 Q34.125 -45.23 37.062 -42.292 Q40 -39.355 40 -35.23 Q40 -31.105 37.062 -28.167 Q34.125 -25.23 30 -25.23 Z M60 -25.23 Q55.875 -25.23 52.938 -28.167 Q50 -31.105 50 -35.23 Q50 -39.355 52.938 -42.292 Q55.875 -45.23 60 -45.23 Q64.125 -45.23 67.062 -42.292 Q70 -39.355 70 -35.23 Q70 -31.105 67.062 -28.167 Q64.125 -25.23 60 -25.23 Z M90 -25.23 Q85.875 -25.23 82.938 -28.167 Q80 -31.105 80 -35.23 Q80 -39.355 82.938 -42.292 Q85.875 -45.23 90 -45.23 Q94.125 -45.23 97.062 -42.292 Q100 -39.355 100 -35.23 Q100 -31.105 97.062 -28.167 Q94.125 -25.23 90 -25.23 Z"/></g><g id="Light-M" transform="matrix(1 0 0 1 1098.18 1126)"><path d="M31.154 -27.73 Q28.06 -27.73 25.857 -29.933 Q23.654 -32.136 23.654 -35.23 Q23.654 -38.324 25.857 -40.527 Q28.06 -42.73 31.154 -42.73 Q34.248 -42.73 36.451 -40.527 Q38.654 -38.324 38.654 -35.23 Q38.654 -32.136 36.451 -29.933 Q34.248 -27.73 31.154 -27.73 Z M60 -27.73 Q56.906 -27.73 54.703 -29.933 Q52.5 -32.136 52.5 -35.23 Q52.5 -38.324 54.703 -40.527 Q56.906 -42.73 60 -42.73 Q63.094 -42.73 65.297 -40.527 Q67.5 -38.324 67.5 -35.23 Q67.5 -32.136 65.297 -29.933 Q63.094 -27.73 60 -27.73 Z M88.846 -27.73 Q85.752 -27.73 83.549 -29.933 Q81.346 -32.136 81.346 -35.23 Q81.346 -38.324 83.549 -40.527 Q85.752 -42.73 88.846 -42.73 Q91.94 -42.73 94.143 -40.527 Q96.346 -38.324 96.346 -35.23 Q96.346 -32.136 94.143 -29.933 Q91.94 -27.73 88.846 -27.73 Z"/></g><g id="Thin-M" transform="matrix(1 0 0 1 802.565 1126)"><path d="M32.308 -30.23 Q30.245 -30.23 28.776 -31.699 Q27.308 -33.167 27.308 -35.23 Q27.308 -37.292 28.776 -38.761 Q30.245 -40.23 32.308 -40.23 Q34.37 -40.23 35.839 -38.761 Q37.308 -37.292 37.308 -35.23 Q37.308 -33.167 35.839 -31.699 Q34.37 -30.23 32.308 -30.23 Z M60 -30.23 Q57.938 -30.23 56.469 -31.699 Q55 -33.167 55 -35.23 Q55 -37.292 56.469 -38.761 Q57.938 -40.23 60 -40.23 Q62.062 -40.23 63.531 -38.761 Q65 -37.292 65 -35.23 Q65 -33.167 63.531 -31.699 Q62.062 -30.23 60 -30.23 Z M87.692 -30.23 Q85.63 -30.23 84.161 -31.699 Q82.692 -33.167 82.692 -35.23 Q82.692 -37.292 84.161 -38.761 Q85.63 -40.23 87.692 -40.23 Q89.755 -40.23 91.224 -38.761 Q92.692 -37.292 92.692 -35.23 Q92.692 -33.167 91.224 -31.699 Q89.755 -30.23 87.692 -30.23 Z"/></g><g id="Ultralight-M" transform="matrix(1 0 0 1 506.415 1126)"><path d="M33 -31.73 Q31.556 -31.73 30.528 -32.758 Q29.5 -33.786 29.5 -35.23 Q29.5 -36.674 30.528 -37.702 Q31.556 -38.73 33 -38.73 Q34.444 -38.73 35.472 -37.702 Q36.5 -36.674 36.5 -35.23 Q36.5 -33.786 35.472 -32.758 Q34.444 -31.73 33 -31.73 Z M60 -31.73 Q58.556 -31.73 57.528 -32.758 Q56.5 -33.786 56.5 -35.23 Q56.5 -36.674 57.528 -37.702 Q58.556 -38.73 60 -38.73 Q61.444 -38.73 62.472 -37.702 Q63.5 -36.674 63.5 -35.23 Q63.5 -33.786 62.472 -32.758 Q61.444 -31.73 60 -31.73 Z M87 -31.73 Q85.556 -31.73 84.528 -32.758 Q83.5 -33.786 83.5 -35.23 Q83.5 -36.674 84.528 -37.702 Q85.556 -38.73 87 -38.73 Q88.444 -38.73 89.472 -37.702 Q90.5 -36.674 90.5 -35.23 Q90.5 -33.786 89.472 -32.758 Q88.444 -31.73 87 -31.73 Z"/></g><g id="Bold-S" transform="matrix(1 0 0 1 2294.23 696)"><path d="M23.001 -26.65 Q19.429 -26.65 16.914 -29.176 Q14.399 -31.703 14.399 -35.251 Q14.399 -38.879 16.926 -41.345 Q19.452 -43.81 23.001 -43.81 Q26.589 -43.81 29.124 -41.324 Q31.659 -38.837 31.659 -35.258 Q31.659 -31.679 29.115 -29.165 Q26.572 -26.65 23.001 -26.65 Z M47.368 -26.65 Q43.79 -26.65 41.275 -29.176 Q38.76 -31.703 38.76 -35.251 Q38.76 -38.879 41.286 -41.345 Q43.813 -43.81 47.361 -43.81 Q50.989 -43.81 53.455 -41.324 Q55.92 -38.837 55.92 -35.258 Q55.92 -31.679 53.434 -29.165 Q50.947 -26.65 47.368 -26.65 Z M71.707 -26.65 Q68.107 -26.65 65.564 -29.176 Q63.021 -31.703 63.021 -35.251 Q63.021 -38.879 65.585 -41.345 Q68.149 -43.81 71.749 -43.81 Q75.35 -43.81 77.815 -41.324 Q80.281 -38.837 80.281 -35.258 Q80.281 -31.679 77.794 -29.165 Q75.308 -26.65 71.707 -26.65 Z"/></g><g id="Semibold-S" transform="matrix(1 0 0 1 1998.1 696)"><path d="M24.312 -27.293 Q21.016 -27.293 18.694 -29.63 Q16.372 -31.968 16.372 -35.251 Q16.372 -38.579 18.709 -40.873 Q21.047 -43.167 24.33 -43.167 Q27.636 -43.167 29.969 -40.852 Q32.302 -38.537 32.302 -35.237 Q32.302 -31.937 29.955 -29.615 Q27.608 -27.293 24.312 -27.293 Z M47.347 -27.293 Q44.047 -27.293 41.725 -29.63 Q39.403 -31.968 39.403 -35.251 Q39.403 -38.579 41.74 -40.873 Q44.078 -43.167 47.361 -43.167 Q50.689 -43.167 52.983 -40.852 Q55.277 -38.537 55.277 -35.237 Q55.277 -31.937 52.962 -29.615 Q50.647 -27.293 47.347 -27.293 Z M70.366 -27.293 Q67.054 -27.293 64.716 -29.63 Q62.378 -31.968 62.378 -35.251 Q62.378 -38.579 64.737 -40.873 Q67.096 -43.167 70.408 -43.167 Q73.72 -43.167 76.014 -40.852 Q78.308 -38.537 78.308 -35.237 Q78.308 -31.937 75.993 -29.615 Q73.678 -27.293 70.366 -27.293 Z"/></g><g id="Medium-S" transform="matrix(1 0 0 1 1701.85 696)"><path d="M25.295 -27.775 Q22.206 -27.775 20.028 -29.971 Q17.851 -32.167 17.851 -35.251 Q17.851 -38.354 20.047 -40.519 Q22.243 -42.685 25.327 -42.685 Q28.42 -42.685 30.602 -40.498 Q32.784 -38.312 32.784 -35.221 Q32.784 -32.13 30.584 -29.952 Q28.384 -27.775 25.295 -27.775 Z M47.331 -27.775 Q44.24 -27.775 42.062 -29.971 Q39.885 -32.167 39.885 -35.251 Q39.885 -38.354 42.081 -40.519 Q44.277 -42.685 47.361 -42.685 Q50.464 -42.685 52.629 -40.498 Q54.795 -38.312 54.795 -35.221 Q54.795 -32.13 52.608 -29.952 Q50.422 -27.775 47.331 -27.775 Z M69.36 -27.775 Q66.264 -27.775 64.08 -29.971 Q61.896 -32.167 61.896 -35.251 Q61.896 -38.354 64.101 -40.519 Q66.305 -42.685 69.402 -42.685 Q72.498 -42.685 74.663 -40.498 Q76.829 -38.312 76.829 -35.221 Q76.829 -32.13 74.642 -29.952 Q72.456 -27.775 69.36 -27.775 Z"/></g><g id="Regular-S" transform="matrix(1 0 0 1 1405.73 696)"><path d="M26.016 -28.129 Q23.078 -28.129 21.007 -30.221 Q18.936 -32.313 18.936 -35.251 Q18.936 -38.189 21.028 -40.26 Q23.12 -42.331 26.058 -42.331 Q28.996 -42.331 31.067 -40.239 Q33.138 -38.147 33.138 -35.209 Q33.138 -32.271 31.046 -30.2 Q28.954 -28.129 26.016 -28.129 Z M47.319 -28.129 Q44.381 -28.129 42.31 -30.221 Q40.239 -32.313 40.239 -35.251 Q40.239 -38.189 42.331 -40.26 Q44.423 -42.331 47.361 -42.331 Q50.299 -42.331 52.37 -40.239 Q54.441 -38.147 54.441 -35.209 Q54.441 -32.271 52.349 -30.2 Q50.257 -28.129 47.319 -28.129 Z M68.622 -28.129 Q65.684 -28.129 63.613 -30.221 Q61.542 -32.313 61.542 -35.251 Q61.542 -38.189 63.634 -40.26 Q65.726 -42.331 68.664 -42.331 Q71.602 -42.331 73.673 -40.239 Q75.744 -38.147 75.744 -35.209 Q75.744 -32.271 73.652 -30.2 Q71.56 -28.129 68.622 -28.129 Z"/></g><g id="Light-S" transform="matrix(1 0 0 1 1109.75 696)"><path d="M26.926 -30.102 Q24.802 -30.102 23.311 -31.614 Q21.819 -33.127 21.819 -35.251 Q21.819 -37.375 23.332 -38.867 Q24.844 -40.358 26.968 -40.358 Q29.093 -40.358 30.584 -38.846 Q32.076 -37.333 32.076 -35.209 Q32.076 -33.085 30.563 -31.593 Q29.051 -30.102 26.926 -30.102 Z M47.319 -30.102 Q45.195 -30.102 43.703 -31.614 Q42.212 -33.127 42.212 -35.251 Q42.212 -37.375 43.724 -38.867 Q45.237 -40.358 47.361 -40.358 Q49.485 -40.358 50.977 -38.846 Q52.468 -37.333 52.468 -35.209 Q52.468 -33.085 50.956 -31.593 Q49.443 -30.102 47.319 -30.102 Z M67.712 -30.102 Q65.587 -30.102 64.096 -31.614 Q62.604 -33.127 62.604 -35.251 Q62.604 -37.375 64.117 -38.867 Q65.629 -40.358 67.754 -40.358 Q69.878 -40.358 71.369 -38.846 Q72.861 -37.333 72.861 -35.209 Q72.861 -33.085 71.348 -31.593 Q69.836 -30.102 67.712 -30.102 Z"/></g><g id="Thin-S" transform="matrix(1 0 0 1 814.015 696)"><path d="M27.837 -32.074 Q26.526 -32.074 25.614 -33.007 Q24.702 -33.94 24.702 -35.251 Q24.702 -36.561 25.635 -37.474 Q26.568 -38.386 27.879 -38.386 Q29.189 -38.386 30.102 -37.453 Q31.014 -36.52 31.014 -35.209 Q31.014 -33.899 30.081 -32.986 Q29.147 -32.074 27.837 -32.074 Z M47.319 -32.074 Q46.009 -32.074 45.096 -33.007 Q44.184 -33.94 44.184 -35.251 Q44.184 -36.561 45.117 -37.474 Q46.05 -38.386 47.361 -38.386 Q48.671 -38.386 49.584 -37.453 Q50.496 -36.52 50.496 -35.209 Q50.496 -33.899 49.563 -32.986 Q48.63 -32.074 47.319 -32.074 Z M66.801 -32.074 Q65.491 -32.074 64.578 -33.007 Q63.666 -33.94 63.666 -35.251 Q63.666 -36.561 64.599 -37.474 Q65.533 -38.386 66.843 -38.386 Q68.154 -38.386 69.066 -37.453 Q69.978 -36.52 69.978 -35.209 Q69.978 -33.899 69.045 -32.986 Q68.112 -32.074 66.801 -32.074 Z"/></g><g id="Ultralight-S" transform="matrix(1 0 0 1 517.792 696)"><path d="M28.383 -33.257 Q27.561 -33.257 26.996 -33.843 Q26.431 -34.429 26.431 -35.251 Q26.431 -36.073 27.017 -36.638 Q27.603 -37.202 28.425 -37.202 Q29.247 -37.202 29.812 -36.617 Q30.377 -36.031 30.377 -35.209 Q30.377 -34.387 29.791 -33.822 Q29.205 -33.257 28.383 -33.257 Z M47.319 -33.257 Q46.497 -33.257 45.932 -33.843 Q45.367 -34.429 45.367 -35.251 Q45.367 -36.073 45.953 -36.638 Q46.539 -37.202 47.361 -37.202 Q48.183 -37.202 48.748 -36.617 Q49.312 -36.031 49.312 -35.209 Q49.312 -34.387 48.727 -33.822 Q48.141 -33.257 47.319 -33.257 Z M66.255 -33.257 Q65.433 -33.257 64.868 -33.843 Q64.303 -34.429 64.303 -35.251 Q64.303 -36.073 64.889 -36.638 Q65.475 -37.202 66.297 -37.202 Q67.119 -37.202 67.684 -36.617 Q68.249 -36.031 68.249 -35.209 Q68.249 -34.387 67.663 -33.822 Q67.077 -33.257 66.255 -33.257 Z"/></g></g></svg>