<svg xmlns="http://www.w3.org/2000/svg" version="1.1" width="3300" height="2000"><g id="Notes"><style>
    text {
      font-family: monospace;
      text-anchor: middle;
    }
    text.emphasis {
      font-weight:bold;
    }
    text.lanchor {
      text-anchor: start;
    }
  </style><rect height="2200" id="artboard" fill="white" width="3300" x="0" y="0"/><line id="" style="fill:none;stroke:black;stroke-width:0.5;" x1="263" x2="3036" y1="292" y2="292"/><text class="lanchor emphasis" transform="matrix(1 0 0 1 263 322)">Weight/Scale Variations</text><text transform="matrix(1 0 0 1 559.711 322)">Ultralight</text><text transform="matrix(1 0 0 1 856.422 322)">Thin</text><text transform="matrix(1 0 0 1 1153.13 322)">Light</text><text transform="matrix(1 0 0 1 1449.84 322)">Regular</text><text transform="matrix(1 0 0 1 1746.56 322)">Medium</text><text transform="matrix(1 0 0 1 2043.27 322)">Semibold</text><text transform="matrix(1 0 0 1 2339.98 322)">Bold</text><text transform="matrix(1 0 0 1 2636.69 322)">Heavy</text><text transform="matrix(1 0 0 1 2933.4 322)">Black</text><text id="template-version" style="text-anchor: end;" transform="matrix(1 0 0 1 3036 1933)">Template v.1.0</text><text class="lanchor" transform="matrix(1 0 0 1 263 726)">Small</text><text class="lanchor" transform="matrix(1 0 0 1 263 1156)">Medium</text><text class="lanchor" transform="matrix(1 0 0 1 263 1586)">Large</text></g><g id="Guides"><g id="H-reference" style="fill:#27AAE1;stroke:none;" transform="matrix(1 0 0 1 339 696)"><path d="M 54.9316 0 L 57.666 0 L 30.5664 -70.459 L 28.0762 -70.459 L 0.976562 0 L 3.66211 0 L 12.9395 -24.4629 L 45.7031 -24.4629 Z M 29.1992 -67.0898 L 29.4434 -67.0898 L 44.8242 -26.709 L 13.8184 -26.709 Z"/></g><line id="Baseline-S" style="fill:none;stroke:#27AAE1;opacity:1;stroke-width:0.577;" x1="263" x2="3036" y1="696" y2="696"/><line id="Capline-S" style="fill:none;stroke:#27AAE1;opacity:1;stroke-width:0.577;" x1="263" x2="3036" y1="625.541" y2="625.541"/><g id="H-reference" style="fill:#27AAE1;stroke:none;" transform="matrix(1 0 0 1 339 1126)"><path d="M 54.9316 0 L 57.666 0 L 30.5664 -70.459 L 28.0762 -70.459 L 0.976562 0 L 3.66211 0 L 12.9395 -24.4629 L 45.7031 -24.4629 Z M 29.1992 -67.0898 L 29.4434 -67.0898 L 44.8242 -26.709 L 13.8184 -26.709 Z"/></g><line id="Baseline-M" style="fill:none;stroke:#27AAE1;opacity:1;stroke-width:0.577;" x1="263" x2="3036" y1="1126" y2="1126"/><line id="Capline-M" style="fill:none;stroke:#27AAE1;opacity:1;stroke-width:0.577;" x1="263" x2="3036" y1="1055.54" y2="1055.54"/><g id="H-reference" style="fill:#27AAE1;stroke:none;" transform="matrix(1 0 0 1 339 1556)"><path d="M 54.9316 0 L 57.666 0 L 30.5664 -70.459 L 28.0762 -70.459 L 0.976562 0 L 3.66211 0 L 12.9395 -24.4629 L 45.7031 -24.4629 Z M 29.1992 -67.0898 L 29.4434 -67.0898 L 44.8242 -26.709 L 13.8184 -26.709 Z"/></g><line id="Baseline-L" style="fill:none;stroke:#27AAE1;opacity:1;stroke-width:0.577;" x1="263" x2="3036" y1="1556" y2="1556"/><line id="Capline-L" style="fill:none;stroke:#27AAE1;opacity:1;stroke-width:0.577;" x1="263" x2="3036" y1="1485.54" y2="1485.54"/><rect height="119.336" id="left-margin" style="fill:darkred;stroke:none;opacity:0.4;" width="12.4512" x="1394.06" y="1030.79"/><rect height="119.336" id="right-margin" style="fill:darkgreen;stroke:none;opacity:0.4;" width="12.4512" x="1502.5112" y="1030.79"/><rect x="1406.5112" y="1045" width="96" height="96" fill="none" stroke="blue" stroke-dasharray="5"/><rect x="1394.06" y="1030.79" width="120.9024" height="119.336" fill="none" stroke="blue"/></g><g id="Symbols"><g id="Bold-L" transform="matrix(1 0 0 1 2266 1556)"><path d="M58.05 27.013 V-5.658 Q47.73 -6.527 37.625 -7.898 Q27.52 -9.269 17.738 -11.687 L21.124 -24.587 Q34.991 -21.201 49.041 -19.911 Q63.091 -18.621 77.471 -18.621 Q91.686 -18.621 105.818 -19.911 Q119.95 -21.201 133.999 -24.587 L137.224 -11.687 Q127.226 -9.43 117.179 -7.944 Q107.133 -6.457 96.911 -5.772 V27.013 H58.05 Z M77.44 -28.457 Q71.756 -28.457 67.806 -32.372 Q63.855 -36.286 63.855 -41.974 Q63.855 -47.495 67.769 -51.521 Q71.684 -55.547 77.448 -55.547 Q83.044 -55.547 86.994 -51.558 Q90.945 -47.568 90.945 -41.966 Q90.945 -36.359 87.031 -32.408 Q83.117 -28.457 77.44 -28.457 Z M24.896 -43.292 Q20.801 -43.292 18.06 -46.147 Q15.319 -49.001 15.319 -52.996 Q15.319 -56.837 18.06 -59.74 Q20.801 -62.642 24.912 -62.642 Q28.864 -62.642 31.686 -59.744 Q34.508 -56.845 34.508 -52.918 Q34.508 -48.936 31.719 -46.114 Q28.931 -43.292 24.896 -43.292 Z M129.918 -43.292 Q125.936 -43.292 123.114 -46.147 Q120.293 -49.001 120.293 -52.996 Q120.293 -56.837 123.147 -59.74 Q126.001 -62.642 129.996 -62.642 Q133.838 -62.642 136.74 -59.744 Q139.643 -56.845 139.643 -52.918 Q139.643 -48.936 136.744 -46.114 Q133.845 -43.292 129.918 -43.292 Z M44.65 -71.189 Q40.474 -71.189 37.733 -73.93 Q34.991 -76.671 34.991 -80.864 Q34.991 -84.734 37.733 -87.556 Q40.474 -90.377 44.666 -90.377 Q48.536 -90.377 51.358 -87.589 Q54.18 -84.801 54.18 -80.848 Q54.18 -76.671 51.392 -73.93 Q48.603 -71.189 44.65 -71.189 Z M110.279 -71.189 Q106.103 -71.189 103.361 -73.93 Q100.62 -76.671 100.62 -80.864 Q100.62 -84.734 103.361 -87.556 Q106.103 -90.377 110.295 -90.377 Q114.165 -90.377 116.987 -87.589 Q119.809 -84.801 119.809 -80.848 Q119.809 -76.671 117.02 -73.93 Q114.232 -71.189 110.279 -71.189 Z M77.35 -84.572 Q73.369 -84.572 70.547 -87.427 Q67.725 -90.281 67.725 -94.276 Q67.725 -98.117 70.579 -101.02 Q73.433 -103.922 77.428 -103.922 Q81.27 -103.922 84.172 -101.024 Q87.075 -98.125 87.075 -94.198 Q87.075 -90.216 84.176 -87.394 Q81.277 -84.572 77.35 -84.572 Z"/></g><g id="Semibold-L" transform="matrix(1 0 0 1 1970.27 1556)"><path d="M58.961 25.19 V-8.187 Q48.641 -9.051 38.513 -10.422 Q28.385 -11.792 18.439 -14.211 L21.404 -25.709 Q35.202 -22.393 49.182 -21.068 Q63.162 -19.743 77.471 -19.743 Q91.616 -19.743 105.643 -21.068 Q119.669 -22.393 133.578 -25.709 L136.453 -14.211 Q126.385 -11.884 116.303 -10.44 Q106.221 -8.996 95.93 -8.274 V25.19 H58.961 Z M77.423 -29.579 Q72.107 -29.579 68.366 -33.299 Q64.626 -37.019 64.626 -42.368 Q64.626 -47.561 68.346 -51.344 Q72.066 -55.127 77.459 -55.127 Q82.693 -55.127 86.434 -51.368 Q90.174 -47.61 90.174 -42.332 Q90.174 -37.06 86.458 -33.32 Q82.743 -29.579 77.423 -29.579 Z M25.983 -46.097 Q22.203 -46.097 19.637 -48.726 Q17.071 -51.356 17.071 -55.08 Q17.071 -58.66 19.637 -61.352 Q22.203 -64.045 25.992 -64.045 Q29.635 -64.045 32.281 -61.354 Q34.928 -58.664 34.928 -55.036 Q34.928 -51.32 32.3 -48.708 Q29.673 -46.097 25.983 -46.097 Z M128.811 -46.097 Q125.095 -46.097 122.483 -48.726 Q119.872 -51.356 119.872 -55.08 Q119.872 -58.66 122.502 -61.352 Q125.131 -64.045 128.855 -64.045 Q132.435 -64.045 135.128 -61.354 Q137.82 -58.664 137.82 -55.036 Q137.82 -51.32 135.13 -48.708 Q132.439 -46.097 128.811 -46.097 Z M45.562 -72.381 Q41.736 -72.381 39.17 -74.947 Q36.604 -77.512 36.604 -81.348 Q36.604 -84.944 39.17 -87.591 Q41.736 -90.237 45.571 -90.237 Q49.167 -90.237 51.814 -87.61 Q54.46 -84.982 54.46 -81.339 Q54.46 -77.512 51.833 -74.947 Q49.205 -72.381 45.562 -72.381 Z M109.298 -72.381 Q105.472 -72.381 102.906 -74.947 Q100.34 -77.512 100.34 -81.348 Q100.34 -84.944 102.906 -87.591 Q105.472 -90.237 109.307 -90.237 Q112.903 -90.237 115.55 -87.61 Q118.196 -84.982 118.196 -81.339 Q118.196 -77.512 115.569 -74.947 Q112.941 -72.381 109.298 -72.381 Z M77.365 -84.152 Q73.649 -84.152 71.038 -86.782 Q68.426 -89.411 68.426 -93.135 Q68.426 -96.715 71.056 -99.408 Q73.686 -102.1 77.409 -102.1 Q80.99 -102.1 83.682 -99.41 Q86.374 -96.719 86.374 -93.091 Q86.374 -89.375 83.684 -86.763 Q80.994 -84.152 77.365 -84.152 Z"/></g><g id="Medium-L" transform="matrix(1 0 0 1 1674.31 1556)"><path d="M59.645 23.823 V-10.084 Q49.325 -10.944 39.179 -12.315 Q29.033 -13.686 18.964 -16.104 L21.614 -26.551 Q35.359 -23.287 49.288 -21.936 Q63.216 -20.584 77.471 -20.584 Q91.563 -20.584 105.511 -21.936 Q119.459 -23.287 133.263 -26.551 L135.874 -16.104 Q125.754 -13.724 115.646 -12.313 Q105.538 -10.901 95.194 -10.15 V23.823 H59.645 Z M77.41 -30.421 Q72.37 -30.421 68.787 -33.994 Q65.205 -37.568 65.205 -42.664 Q65.205 -47.61 68.778 -51.211 Q72.352 -54.811 77.466 -54.811 Q82.43 -54.811 86.013 -51.226 Q89.595 -47.641 89.595 -42.607 Q89.595 -37.586 86.028 -34.003 Q82.462 -30.421 77.41 -30.421 Z M26.799 -48.2 Q23.255 -48.2 20.82 -50.662 Q18.386 -53.123 18.386 -56.643 Q18.386 -60.027 20.82 -62.562 Q23.255 -65.096 26.802 -65.096 Q30.213 -65.096 32.728 -62.563 Q35.244 -60.029 35.244 -56.624 Q35.244 -53.108 32.736 -50.654 Q30.229 -48.2 26.799 -48.2 Z M127.981 -48.2 Q124.464 -48.2 122.01 -50.662 Q119.556 -53.123 119.556 -56.643 Q119.556 -60.027 122.018 -62.562 Q124.479 -65.096 127.999 -65.096 Q131.384 -65.096 133.918 -62.563 Q136.453 -60.029 136.453 -56.624 Q136.453 -53.108 133.919 -50.654 Q131.385 -48.2 127.981 -48.2 Z M46.245 -73.275 Q42.682 -73.275 40.248 -75.709 Q37.813 -78.143 37.813 -81.71 Q37.813 -85.102 40.248 -87.617 Q42.682 -90.132 46.249 -90.132 Q49.64 -90.132 52.156 -87.625 Q54.671 -85.118 54.671 -81.707 Q54.671 -78.143 52.164 -75.709 Q49.656 -73.275 46.245 -73.275 Z M108.562 -73.275 Q104.998 -73.275 102.564 -75.709 Q100.129 -78.143 100.129 -81.71 Q100.129 -85.102 102.564 -87.617 Q104.998 -90.132 108.565 -90.132 Q111.957 -90.132 114.472 -87.625 Q116.987 -85.118 116.987 -81.707 Q116.987 -78.143 114.48 -75.709 Q111.973 -73.275 108.562 -73.275 Z M77.376 -83.836 Q73.859 -83.836 71.406 -86.298 Q68.952 -88.759 68.952 -92.279 Q68.952 -95.664 71.413 -98.198 Q73.875 -100.733 77.395 -100.733 Q80.779 -100.733 83.314 -98.199 Q85.848 -95.665 85.848 -92.261 Q85.848 -88.744 83.314 -86.29 Q80.781 -83.836 77.376 -83.836 Z"/></g><g id="Regular-L" transform="matrix(1 0 0 1 1378.56 1556)"><path d="M60.146 22.82 V-11.475 Q49.826 -12.332 39.668 -13.703 Q29.509 -15.074 19.35 -17.492 L21.769 -27.167 Q35.475 -23.942 49.365 -22.572 Q63.255 -21.201 77.472 -21.201 Q91.525 -21.201 105.415 -22.572 Q119.305 -23.942 133.031 -27.167 L135.45 -17.492 Q125.291 -15.074 115.164 -13.686 Q105.036 -12.298 94.654 -11.526 V22.82 H60.146 Z M77.4 -31.037 Q72.562 -31.037 69.096 -34.504 Q65.629 -37.971 65.629 -42.881 Q65.629 -47.646 69.096 -51.113 Q72.562 -54.58 77.472 -54.58 Q82.237 -54.58 85.704 -51.122 Q89.171 -47.664 89.171 -42.809 Q89.171 -37.971 85.713 -34.504 Q82.256 -31.037 77.4 -31.037 Z M27.397 -49.742 Q24.026 -49.742 21.688 -52.081 Q19.35 -54.419 19.35 -57.789 Q19.35 -61.03 21.688 -63.449 Q24.026 -65.867 27.397 -65.867 Q30.637 -65.867 33.056 -63.449 Q35.475 -61.03 35.475 -57.789 Q35.475 -54.419 33.056 -52.081 Q30.637 -49.742 27.397 -49.742 Z M127.372 -49.742 Q124.001 -49.742 121.663 -52.081 Q119.325 -54.419 119.325 -57.789 Q119.325 -61.03 121.663 -63.449 Q124.001 -65.867 127.372 -65.867 Q130.613 -65.867 133.031 -63.449 Q135.45 -61.03 135.45 -57.789 Q135.45 -54.419 133.031 -52.081 Q130.613 -49.742 127.372 -49.742 Z M46.747 -73.93 Q43.376 -73.93 41.038 -76.268 Q38.7 -78.606 38.7 -81.977 Q38.7 -85.217 41.038 -87.636 Q43.376 -90.055 46.747 -90.055 Q49.988 -90.055 52.406 -87.636 Q54.825 -85.217 54.825 -81.977 Q54.825 -78.606 52.406 -76.268 Q49.988 -73.93 46.747 -73.93 Z M108.022 -73.93 Q104.651 -73.93 102.313 -76.268 Q99.975 -78.606 99.975 -81.977 Q99.975 -85.217 102.313 -87.636 Q104.651 -90.055 108.022 -90.055 Q111.263 -90.055 113.681 -87.636 Q116.1 -85.217 116.1 -81.977 Q116.1 -78.606 113.681 -76.268 Q111.263 -73.93 108.022 -73.93 Z M77.384 -83.605 Q74.014 -83.605 71.676 -85.943 Q69.338 -88.281 69.338 -91.652 Q69.338 -94.892 71.676 -97.311 Q74.014 -99.73 77.384 -99.73 Q80.625 -99.73 83.044 -97.311 Q85.463 -94.892 85.463 -91.652 Q85.463 -88.281 83.044 -85.943 Q80.625 -83.605 77.384 -83.605 Z"/></g><g id="Light-L" transform="matrix(1 0 0 1 1082.77 1556)"><path d="M62.193 19.595 V-12.791 Q52.105 -13.595 42.275 -14.924 Q32.445 -16.254 22.575 -18.547 L24.374 -25.865 Q37.398 -22.826 50.642 -21.487 Q63.886 -20.147 77.442 -20.147 Q90.843 -20.147 104.081 -21.487 Q117.32 -22.826 130.488 -25.865 L132.225 -18.547 Q122.392 -16.262 112.527 -14.908 Q102.662 -13.553 92.607 -12.802 V19.595 H62.193 Z M77.411 -31.037 Q72.811 -31.037 69.561 -34.276 Q66.311 -37.515 66.311 -42.184 Q66.311 -46.716 69.55 -49.966 Q72.788 -53.216 77.457 -53.216 Q81.989 -53.216 85.239 -49.99 Q88.489 -46.764 88.489 -42.138 Q88.489 -37.537 85.263 -34.287 Q82.037 -31.037 77.411 -31.037 Z M29.443 -49.308 Q26.569 -49.308 24.572 -51.305 Q22.575 -53.302 22.575 -56.167 Q22.575 -58.921 24.572 -60.999 Q26.569 -63.076 29.434 -63.076 Q32.188 -63.076 34.266 -61.001 Q36.343 -58.926 36.343 -56.177 Q36.343 -53.302 34.268 -51.305 Q32.193 -49.308 29.443 -49.308 Z M125.325 -49.308 Q122.451 -49.308 120.454 -51.305 Q118.457 -53.302 118.457 -56.167 Q118.457 -58.921 120.454 -60.999 Q122.451 -63.076 125.315 -63.076 Q128.07 -63.076 130.147 -61.001 Q132.225 -58.926 132.225 -56.177 Q132.225 -53.302 130.15 -51.305 Q128.075 -49.308 125.325 -49.308 Z M47.367 -73.186 Q44.493 -73.186 42.496 -75.183 Q40.499 -77.18 40.499 -80.044 Q40.499 -82.799 42.496 -84.876 Q44.493 -86.954 47.357 -86.954 Q50.112 -86.954 52.189 -84.879 Q54.267 -82.804 54.267 -80.054 Q54.267 -77.18 52.192 -75.183 Q50.117 -73.186 47.367 -73.186 Z M107.402 -73.186 Q104.527 -73.186 102.53 -75.183 Q100.533 -77.18 100.533 -80.044 Q100.533 -82.799 102.53 -84.876 Q104.527 -86.954 107.392 -86.954 Q110.146 -86.954 112.224 -84.879 Q114.301 -82.804 114.301 -80.054 Q114.301 -77.18 112.226 -75.183 Q110.151 -73.186 107.402 -73.186 Z M77.384 -82.737 Q74.51 -82.737 72.513 -84.734 Q70.516 -86.731 70.516 -89.595 Q70.516 -92.35 72.513 -94.427 Q74.51 -96.505 77.375 -96.505 Q80.129 -96.505 82.206 -94.43 Q84.284 -92.355 84.284 -89.605 Q84.284 -86.731 82.209 -84.734 Q80.134 -82.737 77.384 -82.737 Z"/></g><g id="Thin-L" transform="matrix(1 0 0 1 787.282 1556)"><path d="M64.239 16.37 V-14.107 Q54.383 -14.856 44.883 -16.145 Q35.382 -17.434 25.8 -19.601 L26.978 -24.563 Q39.32 -21.71 51.919 -20.401 Q64.518 -19.093 77.413 -19.093 Q90.161 -19.093 102.748 -20.401 Q115.336 -21.71 127.946 -24.563 L129 -19.601 Q119.493 -17.449 109.89 -16.129 Q100.287 -14.809 90.561 -14.077 V16.37 H64.239 Z M77.423 -31.037 Q73.059 -31.037 70.026 -34.048 Q66.993 -37.058 66.993 -41.487 Q66.993 -45.786 70.003 -48.818 Q73.014 -51.851 77.443 -51.851 Q81.741 -51.851 84.774 -48.857 Q87.807 -45.864 87.807 -41.467 Q87.807 -37.103 84.813 -34.07 Q81.819 -31.037 77.423 -31.037 Z M31.49 -48.874 Q29.112 -48.874 27.456 -50.53 Q25.8 -52.186 25.8 -54.545 Q25.8 -56.813 27.456 -58.549 Q29.112 -60.286 31.471 -60.286 Q33.738 -60.286 35.475 -58.554 Q37.212 -56.823 37.212 -54.564 Q37.212 -52.186 35.48 -50.53 Q33.749 -48.874 31.49 -48.874 Z M123.279 -48.874 Q120.9 -48.874 119.244 -50.53 Q117.588 -52.186 117.588 -54.545 Q117.588 -56.813 119.244 -58.549 Q120.9 -60.286 123.259 -60.286 Q125.527 -60.286 127.263 -58.554 Q129 -56.823 129 -54.564 Q129 -52.186 127.269 -50.53 Q125.537 -48.874 123.279 -48.874 Z M47.987 -72.442 Q45.609 -72.442 43.953 -74.098 Q42.297 -75.753 42.297 -78.112 Q42.297 -80.38 43.953 -82.117 Q45.609 -83.853 47.968 -83.853 Q50.236 -83.853 51.972 -82.122 Q53.709 -80.39 53.709 -78.132 Q53.709 -75.753 51.977 -74.098 Q50.246 -72.442 47.987 -72.442 Z M106.781 -72.442 Q104.403 -72.442 102.747 -74.098 Q101.091 -75.753 101.091 -78.112 Q101.091 -80.38 102.747 -82.117 Q104.403 -83.853 106.762 -83.853 Q109.03 -83.853 110.766 -82.122 Q112.503 -80.39 112.503 -78.132 Q112.503 -75.753 110.771 -74.098 Q109.04 -72.442 106.781 -72.442 Z M77.384 -81.868 Q75.006 -81.868 73.35 -83.524 Q71.694 -85.18 71.694 -87.539 Q71.694 -89.807 73.35 -91.543 Q75.006 -93.28 77.365 -93.28 Q79.633 -93.28 81.369 -91.549 Q83.106 -89.817 83.106 -87.559 Q83.106 -85.18 81.374 -83.524 Q79.643 -81.868 77.384 -81.868 Z"/></g><g id="Ultralight-L" transform="matrix(1 0 0 1 491.205 1556)"><path d="M65.468 14.435 V-14.897 Q55.751 -15.614 46.447 -16.878 Q37.144 -18.142 27.735 -20.234 L28.541 -23.781 Q40.474 -21.04 52.685 -19.75 Q64.897 -18.46 77.396 -18.46 Q89.751 -18.46 101.948 -19.75 Q114.145 -21.04 126.42 -23.781 L127.065 -20.234 Q117.753 -18.162 108.308 -16.862 Q98.863 -15.563 89.332 -14.842 V14.435 H65.468 Z M77.43 -31.037 Q73.207 -31.037 70.305 -33.911 Q67.403 -36.784 67.403 -41.069 Q67.403 -45.227 70.276 -48.13 Q73.149 -51.032 77.434 -51.032 Q81.593 -51.032 84.495 -48.178 Q87.398 -45.323 87.398 -41.065 Q87.398 -36.842 84.543 -33.94 Q81.688 -31.037 77.43 -31.037 Z M32.718 -48.614 Q30.637 -48.614 29.186 -50.065 Q27.735 -51.516 27.735 -53.571 Q27.735 -55.547 29.186 -57.079 Q30.637 -58.611 32.693 -58.611 Q34.669 -58.611 36.201 -57.086 Q37.733 -55.561 37.733 -53.597 Q37.733 -51.516 36.207 -50.065 Q34.682 -48.614 32.718 -48.614 Z M122.05 -48.614 Q119.97 -48.614 118.519 -50.065 Q117.068 -51.516 117.068 -53.571 Q117.068 -55.547 118.519 -57.079 Q119.97 -58.611 122.025 -58.611 Q124.001 -58.611 125.533 -57.086 Q127.065 -55.561 127.065 -53.597 Q127.065 -51.516 125.54 -50.065 Q124.015 -48.614 122.05 -48.614 Z M48.359 -71.995 Q46.279 -71.995 44.828 -73.446 Q43.376 -74.897 43.376 -76.953 Q43.376 -78.929 44.828 -80.461 Q46.279 -81.992 48.334 -81.992 Q50.31 -81.992 51.842 -80.467 Q53.374 -78.942 53.374 -76.978 Q53.374 -74.897 51.849 -73.446 Q50.323 -71.995 48.359 -71.995 Z M106.409 -71.995 Q104.329 -71.995 102.877 -73.446 Q101.426 -74.897 101.426 -76.953 Q101.426 -78.929 102.877 -80.461 Q104.329 -81.992 106.384 -81.992 Q108.36 -81.992 109.892 -80.467 Q111.424 -78.942 111.424 -76.978 Q111.424 -74.897 109.899 -73.446 Q108.373 -71.995 106.409 -71.995 Z M77.384 -81.347 Q75.304 -81.347 73.853 -82.799 Q72.401 -84.25 72.401 -86.305 Q72.401 -88.281 73.853 -89.813 Q75.304 -91.345 77.359 -91.345 Q79.335 -91.345 80.867 -89.82 Q82.399 -88.295 82.399 -86.33 Q82.399 -84.25 80.874 -82.799 Q79.348 -81.347 77.384 -81.347 Z"/></g><g id="Bold-M" transform="matrix(1 0 0 1 2281.8 1126)"><path d="M42.75 14.145 V-9.23 Q35.25 -9.855 27.812 -10.98 Q20.375 -12.105 13.25 -14.23 L16.75 -27.605 Q27.375 -24.73 38.186 -23.605 Q48.997 -22.48 60.062 -22.48 Q71 -22.48 81.875 -23.605 Q92.75 -24.73 103.5 -27.605 L106.875 -14.23 Q99.5 -12.355 92.125 -11.105 Q84.75 -9.855 77.25 -9.27 V14.145 H42.75 Z M60.033 -27.48 Q55 -27.48 51.562 -30.889 Q48.125 -34.299 48.125 -39.338 Q48.125 -44.23 51.534 -47.73 Q54.944 -51.23 59.983 -51.23 Q64.875 -51.23 68.375 -47.751 Q71.875 -44.273 71.875 -39.388 Q71.875 -34.355 68.396 -30.917 Q64.918 -27.48 60.033 -27.48 Z M19.875 -38.605 Q16 -38.605 13.375 -41.23 Q10.75 -43.855 10.75 -47.742 Q10.75 -51.48 13.375 -54.167 Q16 -56.855 19.887 -56.855 Q23.625 -56.855 26.312 -54.193 Q29 -51.532 29 -47.73 Q29 -43.855 26.338 -41.23 Q23.677 -38.605 19.875 -38.605 Z M100.125 -38.605 Q96.25 -38.605 93.625 -41.23 Q91 -43.855 91 -47.742 Q91 -51.48 93.625 -54.167 Q96.25 -56.855 100.137 -56.855 Q103.875 -56.855 106.562 -54.193 Q109.25 -51.532 109.25 -47.73 Q109.25 -43.855 106.588 -41.23 Q103.927 -38.605 100.125 -38.605 Z M34 -61.105 Q30.125 -61.105 27.5 -63.73 Q24.875 -66.355 24.875 -70.242 Q24.875 -73.98 27.5 -76.667 Q30.125 -79.355 34.012 -79.355 Q37.75 -79.355 40.438 -76.693 Q43.125 -74.032 43.125 -70.23 Q43.125 -66.355 40.464 -63.73 Q37.802 -61.105 34 -61.105 Z M86 -61.105 Q82.125 -61.105 79.5 -63.73 Q76.875 -66.355 76.875 -70.242 Q76.875 -73.98 79.5 -76.667 Q82.125 -79.355 86.012 -79.355 Q89.75 -79.355 92.438 -76.693 Q95.125 -74.032 95.125 -70.23 Q95.125 -66.355 92.463 -63.73 Q89.802 -61.105 86 -61.105 Z M60 -71.23 Q56.125 -71.23 53.5 -73.855 Q50.875 -76.48 50.875 -80.367 Q50.875 -84.105 53.5 -86.792 Q56.125 -89.48 60.012 -89.48 Q63.75 -89.48 66.438 -86.818 Q69.125 -84.157 69.125 -80.355 Q69.125 -76.48 66.463 -73.855 Q63.802 -71.23 60 -71.23 Z"/></g><g id="Semibold-M" transform="matrix(1 0 0 1 1985.97 1126)"><path d="M43.728 12.243 V-11.838 Q36.12 -12.463 28.682 -13.588 Q21.244 -14.713 14.011 -16.838 L17.076 -28.746 Q27.592 -25.871 38.322 -24.773 Q49.053 -23.676 60.035 -23.676 Q70.891 -23.676 81.658 -24.773 Q92.424 -25.871 103.065 -28.746 L106.06 -16.838 Q98.63 -14.855 91.228 -13.659 Q83.826 -12.463 76.272 -11.861 V12.243 H43.728 Z M60.019 -28.676 Q55.326 -28.676 52.133 -31.853 Q48.94 -35.03 48.94 -39.726 Q48.94 -44.284 52.117 -47.54 Q55.294 -50.795 59.991 -50.795 Q64.549 -50.795 67.804 -47.552 Q71.06 -44.308 71.06 -39.754 Q71.06 -35.061 67.817 -31.868 Q64.573 -28.676 60.019 -28.676 Z M21.016 -41.485 Q17.413 -41.485 15.005 -43.893 Q12.598 -46.3 12.598 -49.911 Q12.598 -53.382 15.005 -55.852 Q17.413 -58.322 21.023 -58.322 Q24.494 -58.322 26.965 -55.867 Q29.435 -53.411 29.435 -49.904 Q29.435 -46.3 26.979 -43.893 Q24.524 -41.485 21.016 -41.485 Z M98.984 -41.485 Q95.38 -41.485 92.973 -43.893 Q90.565 -46.3 90.565 -49.911 Q90.565 -53.382 92.973 -55.852 Q95.38 -58.322 98.991 -58.322 Q102.462 -58.322 104.932 -55.867 Q107.402 -53.411 107.402 -49.904 Q107.402 -46.3 104.947 -43.893 Q102.492 -41.485 98.984 -41.485 Z M34.978 -62.355 Q31.375 -62.355 28.967 -64.762 Q26.56 -67.17 26.56 -70.78 Q26.56 -74.252 28.967 -76.722 Q31.375 -79.192 34.985 -79.192 Q38.456 -79.192 40.927 -76.736 Q43.397 -74.281 43.397 -70.773 Q43.397 -67.17 40.941 -64.762 Q38.486 -62.355 34.978 -62.355 Z M85.022 -62.355 Q81.418 -62.355 79.011 -64.762 Q76.603 -67.17 76.603 -70.78 Q76.603 -74.252 79.011 -76.722 Q81.418 -79.192 85.029 -79.192 Q88.5 -79.192 90.97 -76.736 Q93.44 -74.281 93.44 -70.773 Q93.44 -67.17 90.985 -64.762 Q88.529 -62.355 85.022 -62.355 Z M60 -70.795 Q56.397 -70.795 53.989 -73.203 Q51.581 -75.61 51.581 -79.221 Q51.581 -82.692 53.989 -85.162 Q56.397 -87.632 60.007 -87.632 Q63.478 -87.632 65.948 -85.177 Q68.418 -82.721 68.418 -79.214 Q68.418 -75.61 65.963 -73.203 Q63.508 -70.795 60 -70.795 Z"/></g><g id="Medium-M" transform="matrix(1 0 0 1 1689.91 1126)"><path d="M44.462 10.816 V-13.795 Q36.772 -14.42 29.334 -15.545 Q21.897 -16.67 14.582 -18.795 L17.321 -29.602 Q27.755 -26.727 38.425 -25.65 Q49.094 -24.572 60.015 -24.572 Q70.81 -24.572 81.495 -25.65 Q92.179 -26.727 102.739 -29.602 L105.448 -18.795 Q97.978 -16.73 90.556 -15.575 Q83.133 -14.42 75.538 -13.805 V10.816 H44.462 Z M60.008 -29.572 Q55.571 -29.572 52.561 -32.575 Q49.552 -35.578 49.552 -40.017 Q49.552 -44.325 52.554 -47.397 Q55.557 -50.469 59.996 -50.469 Q64.304 -50.469 67.376 -47.402 Q70.448 -44.335 70.448 -40.029 Q70.448 -35.591 67.382 -32.582 Q64.315 -29.572 60.008 -29.572 Z M21.872 -43.646 Q18.473 -43.646 16.228 -45.89 Q13.984 -48.135 13.984 -51.537 Q13.984 -54.809 16.228 -57.116 Q18.473 -59.423 21.875 -59.423 Q25.147 -59.423 27.454 -57.122 Q29.761 -54.821 29.761 -51.534 Q29.761 -48.135 27.46 -45.89 Q25.159 -43.646 21.872 -43.646 Z M98.128 -43.646 Q94.728 -43.646 92.484 -45.89 Q90.239 -48.135 90.239 -51.537 Q90.239 -54.809 92.484 -57.116 Q94.728 -59.423 98.131 -59.423 Q101.402 -59.423 103.709 -57.122 Q106.016 -54.821 106.016 -51.534 Q106.016 -48.135 103.716 -45.89 Q101.415 -43.646 98.128 -43.646 Z M35.712 -63.292 Q32.312 -63.292 30.068 -65.537 Q27.823 -67.782 27.823 -71.184 Q27.823 -74.455 30.068 -76.763 Q32.312 -79.07 35.715 -79.07 Q38.986 -79.07 41.294 -76.769 Q43.6 -74.468 43.6 -71.181 Q43.6 -67.782 41.3 -65.537 Q38.999 -63.292 35.712 -63.292 Z M84.288 -63.292 Q80.889 -63.292 78.644 -65.537 Q76.4 -67.782 76.4 -71.184 Q76.4 -74.455 78.644 -76.763 Q80.889 -79.07 84.291 -79.07 Q87.562 -79.07 89.87 -76.769 Q92.177 -74.468 92.177 -71.181 Q92.177 -67.782 89.876 -65.537 Q87.575 -63.292 84.288 -63.292 Z M60 -70.469 Q56.6 -70.469 54.356 -72.714 Q52.111 -74.958 52.111 -78.361 Q52.111 -81.632 54.356 -83.939 Q56.6 -86.246 60.003 -86.246 Q63.275 -86.246 65.582 -83.945 Q67.889 -81.645 67.889 -78.358 Q67.889 -74.958 65.588 -72.714 Q63.287 -70.469 60 -70.469 Z"/></g><g id="Regular-M" transform="matrix(1 0 0 1 1394.06 1126)"><path d="M45 9.77 V-15.23 Q37.25 -15.855 29.812 -16.98 Q22.375 -18.105 15 -20.23 L17.5 -30.23 Q27.875 -27.355 38.5 -26.292 Q49.125 -25.23 60 -25.23 Q70.75 -25.23 81.375 -26.292 Q92 -27.355 102.5 -30.23 L105 -20.23 Q97.5 -18.105 90.062 -16.98 Q82.625 -15.855 75 -15.23 V9.77 H45 Z M60 -30.23 Q55.75 -30.23 52.875 -33.105 Q50 -35.98 50 -40.23 Q50 -44.355 52.875 -47.292 Q55.75 -50.23 60 -50.23 Q64.125 -50.23 67.062 -47.292 Q70 -44.355 70 -40.23 Q70 -35.98 67.062 -33.105 Q64.125 -30.23 60 -30.23 Z M22.5 -45.23 Q19.25 -45.23 17.125 -47.355 Q15 -49.48 15 -52.73 Q15 -55.855 17.125 -58.042 Q19.25 -60.23 22.5 -60.23 Q25.625 -60.23 27.812 -58.042 Q30 -55.855 30 -52.73 Q30 -49.48 27.812 -47.355 Q25.625 -45.23 22.5 -45.23 Z M97.5 -45.23 Q94.25 -45.23 92.125 -47.355 Q90 -49.48 90 -52.73 Q90 -55.855 92.125 -58.042 Q94.25 -60.23 97.5 -60.23 Q100.625 -60.23 102.812 -58.042 Q105 -55.855 105 -52.73 Q105 -49.48 102.812 -47.355 Q100.625 -45.23 97.5 -45.23 Z M36.25 -63.98 Q33 -63.98 30.875 -66.105 Q28.75 -68.23 28.75 -71.48 Q28.75 -74.605 30.875 -76.792 Q33 -78.98 36.25 -78.98 Q39.375 -78.98 41.562 -76.792 Q43.75 -74.605 43.75 -71.48 Q43.75 -68.23 41.562 -66.105 Q39.375 -63.98 36.25 -63.98 Z M83.75 -63.98 Q80.5 -63.98 78.375 -66.105 Q76.25 -68.23 76.25 -71.48 Q76.25 -74.605 78.375 -76.792 Q80.5 -78.98 83.75 -78.98 Q86.875 -78.98 89.062 -76.792 Q91.25 -74.605 91.25 -71.48 Q91.25 -68.23 89.062 -66.105 Q86.875 -63.98 83.75 -63.98 Z M60 -70.23 Q56.75 -70.23 54.625 -72.355 Q52.5 -74.48 52.5 -77.73 Q52.5 -80.855 54.625 -83.042 Q56.75 -85.23 60 -85.23 Q63.125 -85.23 65.312 -83.042 Q67.5 -80.855 67.5 -77.73 Q67.5 -74.48 65.312 -72.355 Q63.125 -70.23 60 -70.23 Z"/></g><g id="Light-M" transform="matrix(1 0 0 1 1098.18 1126)"><path d="M47.019 7.27 V-16.672 Q39.401 -17.266 32.09 -18.335 Q24.779 -19.403 17.5 -21.384 L19.327 -28.884 Q29.269 -26.249 39.43 -25.211 Q49.59 -24.172 59.989 -24.172 Q70.269 -24.172 80.437 -25.211 Q90.606 -26.249 100.673 -28.884 L102.5 -21.384 Q95.144 -19.403 87.803 -18.326 Q80.461 -17.249 72.981 -16.651 V7.27 H47.019 Z M60.007 -30.711 Q56.087 -30.711 53.428 -33.361 Q50.769 -36.011 50.769 -39.928 Q50.769 -43.73 53.419 -46.451 Q56.069 -49.172 59.986 -49.172 Q63.788 -49.172 66.51 -46.463 Q69.231 -43.753 69.231 -39.948 Q69.231 -36.028 66.521 -33.369 Q63.812 -30.711 60.007 -30.711 Z M23.75 -45.23 Q21.077 -45.23 19.289 -47.018 Q17.5 -48.807 17.5 -51.493 Q17.5 -54.076 19.289 -55.903 Q21.077 -57.73 23.763 -57.73 Q26.346 -57.73 28.173 -55.907 Q30 -54.084 30 -51.48 Q30 -48.807 28.177 -47.018 Q26.354 -45.23 23.75 -45.23 Z M96.25 -45.23 Q93.577 -45.23 91.788 -47.018 Q90 -48.807 90 -51.493 Q90 -54.076 91.788 -55.903 Q93.577 -57.73 96.263 -57.73 Q98.846 -57.73 100.673 -55.907 Q102.5 -54.084 102.5 -51.48 Q102.5 -48.807 100.677 -47.018 Q98.854 -45.23 96.25 -45.23 Z M36.731 -63.74 Q34.058 -63.74 32.269 -65.528 Q30.481 -67.316 30.481 -70.003 Q30.481 -72.586 32.269 -74.412 Q34.058 -76.239 36.744 -76.239 Q39.327 -76.239 41.154 -74.416 Q42.981 -72.594 42.981 -69.989 Q42.981 -67.316 41.158 -65.528 Q39.335 -63.74 36.731 -63.74 Z M83.269 -63.74 Q80.596 -63.74 78.808 -65.528 Q77.019 -67.316 77.019 -70.003 Q77.019 -72.586 78.808 -74.412 Q80.596 -76.239 83.282 -76.239 Q85.865 -76.239 87.692 -74.416 Q89.519 -72.594 89.519 -69.989 Q89.519 -67.316 87.696 -65.528 Q85.873 -63.74 83.269 -63.74 Z M60 -70.23 Q57.327 -70.23 55.538 -72.018 Q53.75 -73.807 53.75 -76.493 Q53.75 -79.076 55.538 -80.903 Q57.327 -82.73 60.013 -82.73 Q62.596 -82.73 64.423 -80.907 Q66.25 -79.084 66.25 -76.48 Q66.25 -73.807 64.427 -72.018 Q62.604 -70.23 60 -70.23 Z"/></g><g id="Thin-M" transform="matrix(1 0 0 1 802.565 1126)"><path d="M49.038 4.77 V-18.115 Q41.552 -18.677 34.367 -19.689 Q27.183 -20.701 20 -22.538 L21.154 -27.538 Q30.663 -25.143 40.359 -24.129 Q50.055 -23.115 59.979 -23.115 Q69.788 -23.115 79.5 -24.129 Q89.212 -25.143 98.846 -27.538 L100 -22.538 Q92.788 -20.701 85.543 -19.672 Q78.298 -18.643 70.962 -18.072 V4.77 H49.038 Z M60.014 -31.191 Q56.423 -31.191 53.981 -33.616 Q51.538 -36.041 51.538 -39.626 Q51.538 -43.105 53.963 -45.61 Q56.388 -48.115 59.973 -48.115 Q63.452 -48.115 65.957 -45.633 Q68.462 -43.151 68.462 -39.667 Q68.462 -36.076 65.98 -33.634 Q63.498 -31.191 60.014 -31.191 Z M25 -45.23 Q22.904 -45.23 21.452 -46.682 Q20 -48.134 20 -50.256 Q20 -52.297 21.452 -53.764 Q22.904 -55.23 25.026 -55.23 Q27.067 -55.23 28.534 -53.772 Q30 -52.313 30 -50.23 Q30 -48.134 28.542 -46.682 Q27.083 -45.23 25 -45.23 Z M95 -45.23 Q92.904 -45.23 91.452 -46.682 Q90 -48.134 90 -50.256 Q90 -52.297 91.452 -53.764 Q92.904 -55.23 95.026 -55.23 Q97.067 -55.23 98.534 -53.772 Q100 -52.313 100 -50.23 Q100 -48.134 98.542 -46.682 Q97.083 -45.23 95 -45.23 Z M37.212 -63.499 Q35.115 -63.499 33.663 -64.951 Q32.212 -66.403 32.212 -68.526 Q32.212 -70.567 33.663 -72.033 Q35.115 -73.499 37.238 -73.499 Q39.279 -73.499 40.745 -72.041 Q42.212 -70.583 42.212 -68.499 Q42.212 -66.403 40.753 -64.951 Q39.295 -63.499 37.212 -63.499 Z M82.788 -63.499 Q80.692 -63.499 79.24 -64.951 Q77.788 -66.403 77.788 -68.526 Q77.788 -70.567 79.24 -72.033 Q80.692 -73.499 82.815 -73.499 Q84.856 -73.499 86.322 -72.041 Q87.788 -70.583 87.788 -68.499 Q87.788 -66.403 86.33 -64.951 Q84.872 -63.499 82.788 -63.499 Z M60 -70.23 Q57.904 -70.23 56.452 -71.682 Q55 -73.134 55 -75.256 Q55 -77.297 56.452 -78.764 Q57.904 -80.23 60.026 -80.23 Q62.067 -80.23 63.534 -78.772 Q65 -77.313 65 -75.23 Q65 -73.134 63.542 -71.682 Q62.083 -70.23 60 -70.23 Z"/></g><g id="Ultralight-M" transform="matrix(1 0 0 1 506.415 1126)"><path d="M50.25 3.27 V-18.98 Q42.843 -19.523 35.734 -20.502 Q28.625 -21.48 21.5 -23.23 L22.25 -26.73 Q31.5 -24.48 40.917 -23.48 Q50.334 -22.48 59.972 -22.48 Q69.5 -22.48 78.938 -23.48 Q88.375 -24.48 97.75 -26.73 L98.5 -23.23 Q91.375 -21.48 84.188 -20.48 Q77 -19.48 69.75 -18.925 V3.27 H50.25 Z M60.017 -31.48 Q56.625 -31.48 54.312 -33.77 Q52 -36.06 52 -39.445 Q52 -42.73 54.29 -45.105 Q56.58 -47.48 59.965 -47.48 Q63.25 -47.48 65.625 -45.135 Q68 -42.79 68 -39.497 Q68 -36.105 65.655 -33.792 Q63.31 -31.48 60.017 -31.48 Z M25.75 -45.23 Q24 -45.23 22.75 -46.48 Q21.5 -47.73 21.5 -49.514 Q21.5 -51.23 22.75 -52.48 Q24 -53.73 25.784 -53.73 Q27.5 -53.73 28.75 -52.49 Q30 -51.251 30 -49.48 Q30 -47.73 28.76 -46.48 Q27.521 -45.23 25.75 -45.23 Z M94.25 -45.23 Q92.5 -45.23 91.25 -46.48 Q90 -47.73 90 -49.514 Q90 -51.23 91.25 -52.48 Q92.5 -53.73 94.284 -53.73 Q96 -53.73 97.25 -52.49 Q98.5 -51.251 98.5 -49.48 Q98.5 -47.73 97.26 -46.48 Q96.021 -45.23 94.25 -45.23 Z M37.5 -63.355 Q35.75 -63.355 34.5 -64.605 Q33.25 -65.855 33.25 -67.639 Q33.25 -69.355 34.5 -70.605 Q35.75 -71.855 37.534 -71.855 Q39.25 -71.855 40.5 -70.615 Q41.75 -69.376 41.75 -67.605 Q41.75 -65.855 40.51 -64.605 Q39.271 -63.355 37.5 -63.355 Z M82.5 -63.355 Q80.75 -63.355 79.5 -64.605 Q78.25 -65.855 78.25 -67.639 Q78.25 -69.355 79.5 -70.605 Q80.75 -71.855 82.534 -71.855 Q84.25 -71.855 85.5 -70.615 Q86.75 -69.376 86.75 -67.605 Q86.75 -65.855 85.51 -64.605 Q84.271 -63.355 82.5 -63.355 Z M60 -70.23 Q58.25 -70.23 57 -71.48 Q55.75 -72.73 55.75 -74.514 Q55.75 -76.23 57 -77.48 Q58.25 -78.73 60.034 -78.73 Q61.75 -78.73 63 -77.49 Q64.25 -76.251 64.25 -74.48 Q64.25 -72.73 63.01 -71.48 Q61.771 -70.23 60 -70.23 Z"/></g><g id="Bold-S" transform="matrix(1 0 0 1 2294.23 696)"><path d="M33.73 1.36 V-16.787 Q28.404 -17.182 23.128 -18.168 Q17.851 -19.154 12.821 -20.535 L15.681 -30.003 Q23.473 -27.932 31.383 -26.995 Q39.293 -26.058 47.389 -26.058 Q55.389 -26.058 63.348 -26.995 Q71.306 -27.932 79.196 -30.003 L81.957 -20.535 Q76.73 -19.351 71.503 -18.266 Q66.276 -17.182 60.95 -16.818 V1.36 H33.73 Z M47.36 -30.693 Q43.79 -30.693 41.275 -33.186 Q38.76 -35.679 38.76 -39.255 Q38.76 -42.725 41.252 -45.29 Q43.745 -47.854 47.321 -47.854 Q50.792 -47.854 53.356 -45.307 Q55.92 -42.759 55.92 -39.294 Q55.92 -35.723 53.373 -33.208 Q50.826 -30.693 47.36 -30.693 Z M18.048 -37.104 Q14.991 -37.104 12.92 -39.175 Q10.849 -41.246 10.849 -44.313 Q10.849 -47.262 12.92 -49.383 Q14.991 -51.503 18.058 -51.503 Q21.007 -51.503 23.128 -49.403 Q25.248 -47.303 25.248 -44.303 Q25.248 -41.246 23.148 -39.175 Q21.048 -37.104 18.048 -37.104 Z M76.632 -37.104 Q73.574 -37.104 71.503 -39.175 Q69.432 -41.246 69.432 -44.313 Q69.432 -47.262 71.503 -49.383 Q73.574 -51.503 76.641 -51.503 Q79.59 -51.503 81.711 -49.403 Q83.831 -47.303 83.831 -44.303 Q83.831 -41.246 81.731 -39.175 Q79.632 -37.104 76.632 -37.104 Z M28.996 -54.265 Q25.938 -54.265 23.867 -56.336 Q21.796 -58.407 21.796 -61.474 Q21.796 -64.423 23.867 -66.543 Q25.938 -68.664 29.005 -68.664 Q31.955 -68.664 34.075 -66.564 Q36.195 -64.464 36.195 -61.464 Q36.195 -58.407 34.095 -56.336 Q31.996 -54.265 28.996 -54.265 Z M65.684 -54.265 Q62.627 -54.265 60.556 -56.336 Q58.485 -58.407 58.485 -61.474 Q58.485 -64.423 60.556 -66.543 Q62.627 -68.664 65.694 -68.664 Q68.643 -68.664 70.763 -66.564 Q72.884 -64.464 72.884 -61.464 Q72.884 -58.407 70.784 -56.336 Q68.684 -54.265 65.684 -54.265 Z M47.34 -62.056 Q44.283 -62.056 42.212 -64.127 Q40.14 -66.198 40.14 -69.265 Q40.14 -72.214 42.212 -74.335 Q44.283 -76.455 47.35 -76.455 Q50.299 -76.455 52.419 -74.355 Q54.54 -72.256 54.54 -69.256 Q54.54 -66.198 52.44 -64.127 Q50.34 -62.056 47.34 -62.056 Z"/></g><g id="Semibold-S" transform="matrix(1 0 0 1 1998.1 696)"><path d="M34.502 -0.141 V-18.845 Q29.09 -19.24 23.814 -20.226 Q18.537 -21.212 13.422 -22.593 L15.939 -30.903 Q23.644 -28.832 31.49 -27.917 Q39.337 -27.001 47.368 -27.001 Q55.304 -27.001 63.176 -27.917 Q71.049 -28.832 78.853 -30.903 L81.314 -22.593 Q76.044 -21.324 70.796 -20.282 Q65.547 -19.24 60.178 -18.863 V-0.141 H34.502 Z M47.349 -31.637 Q44.047 -31.637 41.725 -33.946 Q39.403 -36.255 39.403 -39.561 Q39.403 -42.768 41.712 -45.14 Q44.022 -47.511 47.327 -47.511 Q50.535 -47.511 52.906 -45.149 Q55.277 -42.787 55.277 -39.583 Q55.277 -36.281 52.915 -33.959 Q50.554 -31.637 47.349 -31.637 Z M18.949 -39.376 Q16.106 -39.376 14.206 -41.276 Q12.307 -43.176 12.307 -46.024 Q12.307 -48.763 14.206 -50.712 Q16.106 -52.661 18.954 -52.661 Q21.693 -52.661 23.642 -50.723 Q25.591 -48.786 25.591 -46.019 Q25.591 -43.176 23.654 -41.276 Q21.716 -39.376 18.949 -39.376 Z M75.731 -39.376 Q72.888 -39.376 70.989 -41.276 Q69.089 -43.176 69.089 -46.024 Q69.089 -48.763 70.989 -50.712 Q72.888 -52.661 75.737 -52.661 Q78.476 -52.661 80.424 -50.723 Q82.373 -48.786 82.373 -46.019 Q82.373 -43.176 80.436 -41.276 Q78.499 -39.376 75.731 -39.376 Z M29.768 -55.251 Q26.925 -55.251 25.025 -57.15 Q23.125 -59.05 23.125 -61.898 Q23.125 -64.637 25.025 -66.586 Q26.925 -68.535 29.773 -68.535 Q32.512 -68.535 34.461 -66.598 Q36.41 -64.661 36.41 -61.893 Q36.41 -59.05 34.472 -57.15 Q32.535 -55.251 29.768 -55.251 Z M64.912 -55.251 Q62.069 -55.251 60.17 -57.15 Q58.27 -59.05 58.27 -61.898 Q58.27 -64.637 60.17 -66.586 Q62.069 -68.535 64.918 -68.535 Q67.657 -68.535 69.606 -66.598 Q71.555 -64.661 71.555 -61.893 Q71.555 -59.05 69.617 -57.15 Q67.68 -55.251 64.912 -55.251 Z M47.34 -61.713 Q44.497 -61.713 42.597 -63.613 Q40.698 -65.512 40.698 -68.361 Q40.698 -71.1 42.597 -73.048 Q44.497 -74.997 47.345 -74.997 Q50.084 -74.997 52.033 -73.06 Q53.982 -71.123 53.982 -68.355 Q53.982 -65.512 52.045 -63.613 Q50.108 -61.713 47.34 -61.713 Z"/></g><g id="Medium-S" transform="matrix(1 0 0 1 1701.85 696)"><path d="M35.081 -1.267 V-20.389 Q29.605 -20.784 24.328 -21.77 Q19.052 -22.756 13.872 -24.137 L16.132 -31.579 Q23.773 -29.508 31.571 -28.608 Q39.37 -27.709 47.352 -27.709 Q55.239 -27.709 63.048 -28.608 Q70.856 -29.508 78.596 -31.579 L80.832 -24.137 Q75.53 -22.803 70.265 -21.793 Q65 -20.784 59.599 -20.397 V-1.267 H35.081 Z M47.34 -32.344 Q44.24 -32.344 42.062 -34.516 Q39.885 -36.688 39.885 -39.79 Q39.885 -42.801 42.057 -45.027 Q44.229 -47.254 47.331 -47.254 Q50.342 -47.254 52.568 -45.031 Q54.795 -42.809 54.795 -39.799 Q54.795 -36.699 52.572 -34.521 Q50.35 -32.344 47.34 -32.344 Z M19.624 -41.081 Q16.942 -41.081 15.171 -42.852 Q13.4 -44.623 13.4 -47.307 Q13.4 -49.889 15.171 -51.709 Q16.942 -53.529 19.627 -53.529 Q22.208 -53.529 24.028 -51.714 Q25.848 -49.898 25.848 -47.305 Q25.848 -44.623 24.033 -42.852 Q22.218 -41.081 19.624 -41.081 Z M75.056 -41.081 Q72.374 -41.081 70.603 -42.852 Q68.832 -44.623 68.832 -47.307 Q68.832 -49.889 70.603 -51.709 Q72.374 -53.529 75.058 -53.529 Q77.639 -53.529 79.46 -51.714 Q81.28 -49.898 81.28 -47.305 Q81.28 -44.623 79.465 -42.852 Q77.649 -41.081 75.056 -41.081 Z M30.347 -55.991 Q27.664 -55.991 25.893 -57.761 Q24.122 -59.532 24.122 -62.217 Q24.122 -64.798 25.893 -66.618 Q27.664 -68.439 30.349 -68.439 Q32.93 -68.439 34.75 -66.623 Q36.571 -64.808 36.571 -62.215 Q36.571 -59.532 34.755 -57.761 Q32.94 -55.991 30.347 -55.991 Z M64.333 -55.991 Q61.651 -55.991 59.88 -57.761 Q58.109 -59.532 58.109 -62.217 Q58.109 -64.798 59.88 -66.618 Q61.651 -68.439 64.336 -68.439 Q66.917 -68.439 68.737 -66.623 Q70.558 -64.808 70.558 -62.215 Q70.558 -59.532 68.742 -57.761 Q66.927 -55.991 64.333 -55.991 Z M47.34 -61.456 Q44.658 -61.456 42.887 -63.227 Q41.116 -64.998 41.116 -67.682 Q41.116 -70.263 42.887 -72.084 Q44.658 -73.904 47.342 -73.904 Q49.924 -73.904 51.744 -72.089 Q53.564 -70.273 53.564 -67.68 Q53.564 -64.998 51.749 -63.227 Q49.933 -61.456 47.34 -61.456 Z"/></g><g id="Regular-S" transform="matrix(1 0 0 1 1405.73 696)"><path d="M35.505 -2.092 V-21.521 Q29.982 -21.916 24.706 -22.902 Q19.429 -23.888 14.202 -25.269 L16.273 -32.074 Q23.867 -30.003 31.631 -29.115 Q39.394 -28.228 47.34 -28.228 Q55.192 -28.228 62.953 -29.115 Q70.714 -30.003 78.407 -32.074 L80.478 -25.269 Q75.152 -23.888 69.876 -22.902 Q64.599 -21.916 59.175 -21.521 V-2.092 H35.505 Z M47.334 -32.863 Q44.381 -32.863 42.31 -34.934 Q40.239 -37.005 40.239 -39.958 Q40.239 -42.824 42.31 -44.945 Q44.381 -47.065 47.334 -47.065 Q50.2 -47.065 52.321 -44.945 Q54.441 -42.824 54.441 -39.958 Q54.441 -37.005 52.321 -34.934 Q50.2 -32.863 47.334 -32.863 Z M20.12 -42.331 Q17.555 -42.331 15.879 -44.008 Q14.202 -45.684 14.202 -48.248 Q14.202 -50.714 15.879 -52.44 Q17.555 -54.166 20.12 -54.166 Q22.585 -54.166 24.311 -52.44 Q26.037 -50.714 26.037 -48.248 Q26.037 -45.684 24.311 -44.008 Q22.585 -42.331 20.12 -42.331 Z M74.561 -42.331 Q71.996 -42.331 70.32 -44.008 Q68.643 -45.684 68.643 -48.248 Q68.643 -50.714 70.32 -52.44 Q71.996 -54.166 74.561 -54.166 Q77.026 -54.166 78.752 -52.44 Q80.478 -50.714 80.478 -48.248 Q80.478 -45.684 78.752 -44.008 Q77.026 -42.331 74.561 -42.331 Z M30.771 -56.533 Q28.207 -56.533 26.53 -58.21 Q24.854 -59.886 24.854 -62.45 Q24.854 -64.916 26.53 -66.642 Q28.207 -68.368 30.771 -68.368 Q33.237 -68.368 34.963 -66.642 Q36.689 -64.916 36.689 -62.45 Q36.689 -59.886 34.963 -58.21 Q33.237 -56.533 30.771 -56.533 Z M63.909 -56.533 Q61.345 -56.533 59.668 -58.21 Q57.992 -59.886 57.992 -62.45 Q57.992 -64.916 59.668 -66.642 Q61.345 -68.368 63.909 -68.368 Q66.375 -68.368 68.101 -66.642 Q69.827 -64.916 69.827 -62.45 Q69.827 -59.886 68.101 -58.21 Q66.375 -56.533 63.909 -56.533 Z M47.34 -61.267 Q44.776 -61.267 43.099 -62.944 Q41.422 -64.62 41.422 -67.184 Q41.422 -69.65 43.099 -71.376 Q44.776 -73.102 47.34 -73.102 Q49.806 -73.102 51.532 -71.376 Q53.258 -69.65 53.258 -67.184 Q53.258 -64.62 51.532 -62.944 Q49.806 -61.267 47.34 -61.267 Z"/></g><g id="Light-S" transform="matrix(1 0 0 1 1109.75 696)"><path d="M37.098 -4.065 V-22.659 Q31.679 -23.029 26.503 -23.971 Q21.326 -24.912 16.175 -26.179 L17.715 -31.012 Q24.967 -29.13 32.364 -28.262 Q39.761 -27.393 47.332 -27.393 Q54.813 -27.393 62.213 -28.262 Q69.614 -29.13 76.965 -31.012 L78.505 -26.179 Q73.293 -24.912 68.093 -23.964 Q62.892 -23.016 57.582 -22.642 V-4.065 H37.098 Z M47.339 -33.242 Q44.647 -33.242 42.746 -35.136 Q40.846 -37.029 40.846 -39.72 Q40.846 -42.331 42.74 -44.281 Q44.633 -46.23 47.323 -46.23 Q49.935 -46.23 51.884 -44.29 Q53.834 -42.349 53.834 -39.736 Q53.834 -37.043 51.893 -35.143 Q49.953 -33.242 47.339 -33.242 Z M21.106 -42.331 Q18.997 -42.331 17.586 -43.742 Q16.175 -45.153 16.175 -47.273 Q16.175 -49.31 17.586 -50.752 Q18.997 -52.193 21.116 -52.193 Q23.154 -52.193 24.596 -50.755 Q26.037 -49.317 26.037 -47.262 Q26.037 -45.153 24.599 -43.742 Q23.161 -42.331 21.106 -42.331 Z M73.574 -42.331 Q71.465 -42.331 70.054 -43.742 Q68.643 -45.153 68.643 -47.273 Q68.643 -49.31 70.054 -50.752 Q71.465 -52.193 73.585 -52.193 Q75.622 -52.193 77.064 -50.755 Q78.505 -49.317 78.505 -47.262 Q78.505 -45.153 77.067 -43.742 Q75.629 -42.331 73.574 -42.331 Z M31.15 -56.343 Q29.041 -56.343 27.63 -57.754 Q26.219 -59.165 26.219 -61.285 Q26.219 -63.323 27.63 -64.764 Q29.041 -66.206 31.161 -66.206 Q33.199 -66.206 34.64 -64.767 Q36.082 -63.329 36.082 -61.274 Q36.082 -59.165 34.643 -57.754 Q33.205 -56.343 31.15 -56.343 Z M63.53 -56.343 Q61.421 -56.343 60.01 -57.754 Q58.598 -59.165 58.598 -61.285 Q58.598 -63.323 60.01 -64.764 Q61.421 -66.206 63.54 -66.206 Q65.578 -66.206 67.019 -64.767 Q68.461 -63.329 68.461 -61.274 Q68.461 -59.165 67.023 -57.754 Q65.584 -56.343 63.53 -56.343 Z M47.34 -61.267 Q45.231 -61.267 43.82 -62.678 Q42.409 -64.089 42.409 -66.209 Q42.409 -68.246 43.82 -69.688 Q45.231 -71.129 47.35 -71.129 Q49.388 -71.129 50.83 -69.691 Q52.271 -68.253 52.271 -66.198 Q52.271 -64.089 50.833 -62.678 Q49.395 -61.267 47.34 -61.267 Z"/></g><g id="Thin-S" transform="matrix(1 0 0 1 814.015 696)"><path d="M38.691 -6.037 V-23.797 Q33.376 -24.142 28.299 -25.039 Q23.222 -25.936 18.147 -27.09 L19.156 -29.95 Q26.067 -28.258 33.097 -27.408 Q40.128 -26.559 47.323 -26.559 Q54.434 -26.559 61.474 -27.408 Q68.514 -28.258 75.524 -29.95 L76.533 -27.09 Q71.435 -25.936 66.31 -25.026 Q61.185 -24.116 55.989 -23.764 V-6.037 H38.691 Z M47.345 -33.622 Q44.912 -33.622 43.183 -35.338 Q41.453 -37.054 41.453 -39.481 Q41.453 -41.838 43.169 -43.617 Q44.885 -45.396 47.313 -45.396 Q49.669 -45.396 51.448 -43.635 Q53.227 -41.874 53.227 -39.514 Q53.227 -37.081 51.466 -35.351 Q49.706 -33.622 47.345 -33.622 Z M22.092 -42.331 Q20.438 -42.331 19.293 -43.477 Q18.147 -44.622 18.147 -46.297 Q18.147 -47.907 19.293 -49.064 Q20.438 -50.221 22.113 -50.221 Q23.723 -50.221 24.88 -49.07 Q26.037 -47.92 26.037 -46.276 Q26.037 -44.622 24.886 -43.477 Q23.736 -42.331 22.092 -42.331 Z M72.588 -42.331 Q70.934 -42.331 69.789 -43.477 Q68.643 -44.622 68.643 -46.297 Q68.643 -47.907 69.789 -49.064 Q70.934 -50.221 72.609 -50.221 Q74.219 -50.221 75.376 -49.07 Q76.533 -47.92 76.533 -46.276 Q76.533 -44.622 75.382 -43.477 Q74.232 -42.331 72.588 -42.331 Z M31.53 -56.154 Q29.876 -56.154 28.73 -57.299 Q27.585 -58.445 27.585 -60.119 Q27.585 -61.73 28.73 -62.887 Q29.876 -64.044 31.55 -64.044 Q33.161 -64.044 34.318 -62.893 Q35.475 -61.742 35.475 -60.099 Q35.475 -58.445 34.324 -57.299 Q33.173 -56.154 31.53 -56.154 Z M63.15 -56.154 Q61.496 -56.154 60.351 -57.299 Q59.205 -58.445 59.205 -60.119 Q59.205 -61.73 60.351 -62.887 Q61.496 -64.044 63.171 -64.044 Q64.781 -64.044 65.938 -62.893 Q67.095 -61.742 67.095 -60.099 Q67.095 -58.445 65.945 -57.299 Q64.794 -56.154 63.15 -56.154 Z M47.34 -61.267 Q45.686 -61.267 44.541 -62.413 Q43.395 -63.558 43.395 -65.233 Q43.395 -66.843 44.541 -68 Q45.686 -69.157 47.361 -69.157 Q48.971 -69.157 50.128 -68.006 Q51.285 -66.856 51.285 -65.212 Q51.285 -63.558 50.134 -62.413 Q48.984 -61.267 47.34 -61.267 Z"/></g><g id="Ultralight-S" transform="matrix(1 0 0 1 517.792 696)"><path d="M39.647 -7.22 V-24.48 Q34.394 -24.81 29.377 -25.681 Q24.36 -26.551 19.331 -27.636 L20.021 -29.312 Q26.727 -27.734 33.538 -26.896 Q40.348 -26.058 47.318 -26.058 Q54.206 -26.058 61.03 -26.896 Q67.854 -27.734 74.659 -29.312 L75.35 -27.636 Q70.32 -26.551 65.24 -25.663 Q60.161 -24.776 55.033 -24.437 V-7.22 H39.647 Z M47.348 -33.849 Q45.072 -33.849 43.444 -35.459 Q41.817 -37.068 41.817 -39.338 Q41.817 -41.542 43.426 -43.219 Q45.036 -44.895 47.306 -44.895 Q49.51 -44.895 51.186 -43.242 Q52.863 -41.59 52.863 -39.38 Q52.863 -37.104 51.21 -35.477 Q49.557 -33.849 47.348 -33.849 Z M22.684 -42.331 Q21.303 -42.331 20.317 -43.317 Q19.331 -44.303 19.331 -45.711 Q19.331 -47.065 20.317 -48.051 Q21.303 -49.037 22.711 -49.037 Q24.065 -49.037 25.051 -48.059 Q26.037 -47.081 26.037 -45.684 Q26.037 -44.303 25.059 -43.317 Q24.081 -42.331 22.684 -42.331 Z M71.996 -42.331 Q70.615 -42.331 69.629 -43.317 Q68.643 -44.303 68.643 -45.711 Q68.643 -47.065 69.629 -48.051 Q70.615 -49.037 72.023 -49.037 Q73.377 -49.037 74.363 -48.059 Q75.35 -47.081 75.35 -45.684 Q75.35 -44.303 74.371 -43.317 Q73.393 -42.331 71.996 -42.331 Z M31.757 -56.04 Q30.377 -56.04 29.39 -57.026 Q28.404 -58.012 28.404 -59.42 Q28.404 -60.774 29.39 -61.76 Q30.377 -62.746 31.784 -62.746 Q33.138 -62.746 34.124 -61.768 Q35.111 -60.79 35.111 -59.393 Q35.111 -58.012 34.132 -57.026 Q33.154 -56.04 31.757 -56.04 Z M62.923 -56.04 Q61.542 -56.04 60.556 -57.026 Q59.57 -58.012 59.57 -59.42 Q59.57 -60.774 60.556 -61.76 Q61.542 -62.746 62.95 -62.746 Q64.303 -62.746 65.29 -61.768 Q66.276 -60.79 66.276 -59.393 Q66.276 -58.012 65.298 -57.026 Q64.32 -56.04 62.923 -56.04 Z M47.34 -61.267 Q45.959 -61.267 44.973 -62.253 Q43.987 -63.239 43.987 -64.647 Q43.987 -66.001 44.973 -66.987 Q45.959 -67.973 47.367 -67.973 Q48.721 -67.973 49.707 -66.995 Q50.693 -66.017 50.693 -64.62 Q50.693 -63.239 49.715 -62.253 Q48.737 -61.267 47.34 -61.267 Z"/></g></g></svg>